<mxfile host="Electron" agent="Mozilla/5.0 (Windows NT 10.0; Win64; x64) AppleWebKit/537.36 (KHTML, like Gecko) draw.io/26.2.2 Chrome/134.0.6998.178 Electron/35.1.2 Safari/537.36" version="26.2.2" pages="5">
  <diagram name="Страница — 1" id="5sTvnZTJfavDDFROPg_x">
    <mxGraphModel dx="2054" dy="1479" grid="1" gridSize="10" guides="1" tooltips="1" connect="1" arrows="1" fold="1" page="0" pageScale="1" pageWidth="827" pageHeight="1169" math="0" shadow="0">
      <root>
        <mxCell id="0" />
        <mxCell id="1" parent="0" />
        <mxCell id="auGSVoLlWJl7ejtN8B5e-1" value="Пользователь" style="shape=umlActor;verticalLabelPosition=bottom;verticalAlign=top;html=1;outlineConnect=0;" parent="1" vertex="1">
          <mxGeometry x="45" y="154" width="30" height="60" as="geometry" />
        </mxCell>
        <mxCell id="auGSVoLlWJl7ejtN8B5e-15" value="" style="group" parent="1" vertex="1" connectable="0">
          <mxGeometry x="78" y="510" width="115" height="100" as="geometry" />
        </mxCell>
        <mxCell id="auGSVoLlWJl7ejtN8B5e-11" value="" style="shape=umlActor;verticalLabelPosition=bottom;verticalAlign=top;html=1;outlineConnect=0;" parent="auGSVoLlWJl7ejtN8B5e-15" vertex="1">
          <mxGeometry x="42.5" width="30" height="60" as="geometry" />
        </mxCell>
        <mxCell id="auGSVoLlWJl7ejtN8B5e-13" value="Пользователь" style="rounded=0;whiteSpace=wrap;html=1;" parent="auGSVoLlWJl7ejtN8B5e-15" vertex="1">
          <mxGeometry y="60" width="115" height="40" as="geometry" />
        </mxCell>
        <mxCell id="auGSVoLlWJl7ejtN8B5e-16" value="Программа" style="rounded=0;whiteSpace=wrap;html=1;" parent="1" vertex="1">
          <mxGeometry x="481" y="570" width="115" height="40" as="geometry" />
        </mxCell>
        <mxCell id="auGSVoLlWJl7ejtN8B5e-17" value="" style="endArrow=none;dashed=1;html=1;rounded=0;" parent="1" source="auGSVoLlWJl7ejtN8B5e-20" edge="1">
          <mxGeometry width="50" height="50" relative="1" as="geometry">
            <mxPoint x="133" y="890" as="sourcePoint" />
            <mxPoint x="133" y="610" as="targetPoint" />
          </mxGeometry>
        </mxCell>
        <mxCell id="auGSVoLlWJl7ejtN8B5e-18" value="" style="endArrow=none;dashed=1;html=1;rounded=0;" parent="1" source="auGSVoLlWJl7ejtN8B5e-22" edge="1">
          <mxGeometry width="50" height="50" relative="1" as="geometry">
            <mxPoint x="541" y="890" as="sourcePoint" />
            <mxPoint x="541" y="610" as="targetPoint" />
          </mxGeometry>
        </mxCell>
        <mxCell id="auGSVoLlWJl7ejtN8B5e-21" value="" style="endArrow=none;dashed=1;html=1;rounded=0;" parent="1" target="auGSVoLlWJl7ejtN8B5e-20" edge="1">
          <mxGeometry width="50" height="50" relative="1" as="geometry">
            <mxPoint x="136" y="950" as="sourcePoint" />
            <mxPoint x="133" y="610" as="targetPoint" />
          </mxGeometry>
        </mxCell>
        <mxCell id="auGSVoLlWJl7ejtN8B5e-20" value="" style="html=1;points=[[0,0,0,0,5],[0,1,0,0,-5],[1,0,0,0,5],[1,1,0,0,-5]];perimeter=orthogonalPerimeter;outlineConnect=0;targetShapes=umlLifeline;portConstraint=eastwest;newEdgeStyle={&quot;curved&quot;:0,&quot;rounded&quot;:0};fillColor=#f8cecc;strokeColor=#b85450;" parent="1" vertex="1">
          <mxGeometry x="130.5" y="650" width="10" height="260" as="geometry" />
        </mxCell>
        <mxCell id="auGSVoLlWJl7ejtN8B5e-23" value="" style="endArrow=none;dashed=1;html=1;rounded=0;" parent="1" target="auGSVoLlWJl7ejtN8B5e-22" edge="1">
          <mxGeometry width="50" height="50" relative="1" as="geometry">
            <mxPoint x="539" y="950" as="sourcePoint" />
            <mxPoint x="541" y="610" as="targetPoint" />
          </mxGeometry>
        </mxCell>
        <mxCell id="auGSVoLlWJl7ejtN8B5e-22" value="" style="html=1;points=[[0,0,0,0,5],[0,1,0,0,-5],[1,0,0,0,5],[1,1,0,0,-5]];perimeter=orthogonalPerimeter;outlineConnect=0;targetShapes=umlLifeline;portConstraint=eastwest;newEdgeStyle={&quot;curved&quot;:0,&quot;rounded&quot;:0};fillColor=#f8cecc;strokeColor=#b85450;" parent="1" vertex="1">
          <mxGeometry x="533.5" y="650" width="10" height="260" as="geometry" />
        </mxCell>
        <mxCell id="auGSVoLlWJl7ejtN8B5e-24" style="edgeStyle=orthogonalEdgeStyle;rounded=0;orthogonalLoop=1;jettySize=auto;html=1;curved=0;exitX=1;exitY=0;exitDx=0;exitDy=5;exitPerimeter=0;" parent="1" edge="1">
          <mxGeometry relative="1" as="geometry">
            <mxPoint x="140.5" y="670" as="sourcePoint" />
            <mxPoint x="531" y="670" as="targetPoint" />
            <Array as="points">
              <mxPoint x="531" y="670" />
            </Array>
          </mxGeometry>
        </mxCell>
        <mxCell id="auGSVoLlWJl7ejtN8B5e-26" value="Запуск программы" style="text;html=1;align=center;verticalAlign=middle;resizable=0;points=[];autosize=1;strokeColor=none;fillColor=none;" parent="1" vertex="1">
          <mxGeometry x="265.15" y="640" width="130" height="30" as="geometry" />
        </mxCell>
        <mxCell id="auGSVoLlWJl7ejtN8B5e-29" style="edgeStyle=orthogonalEdgeStyle;rounded=0;orthogonalLoop=1;jettySize=auto;html=1;curved=0;endArrow=open;endFill=0;dashed=1;entryX=1.25;entryY=0.768;entryDx=0;entryDy=0;entryPerimeter=0;" parent="1" edge="1">
          <mxGeometry relative="1" as="geometry">
            <mxPoint x="533" y="711" as="sourcePoint" />
            <mxPoint x="140.5" y="710.9200000000001" as="targetPoint" />
            <Array as="points">
              <mxPoint x="364" y="710" />
            </Array>
          </mxGeometry>
        </mxCell>
        <mxCell id="auGSVoLlWJl7ejtN8B5e-31" style="edgeStyle=orthogonalEdgeStyle;rounded=0;orthogonalLoop=1;jettySize=auto;html=1;curved=0;endArrow=open;endFill=0;dashed=1;entryX=1.25;entryY=0.768;entryDx=0;entryDy=0;entryPerimeter=0;" parent="1" edge="1">
          <mxGeometry relative="1" as="geometry">
            <mxPoint x="533.5" y="780" as="sourcePoint" />
            <mxPoint x="143.5" y="780.3800000000001" as="targetPoint" />
            <Array as="points">
              <mxPoint x="367" y="779.46" />
            </Array>
          </mxGeometry>
        </mxCell>
        <mxCell id="auGSVoLlWJl7ejtN8B5e-32" value="Отображение интерфейса" style="text;html=1;align=center;verticalAlign=middle;resizable=0;points=[];autosize=1;strokeColor=none;fillColor=none;" parent="1" vertex="1">
          <mxGeometry x="245.14999999999998" y="680" width="170" height="30" as="geometry" />
        </mxCell>
        <mxCell id="auGSVoLlWJl7ejtN8B5e-33" value="Запуск генерации данных" style="text;html=1;align=center;verticalAlign=middle;resizable=0;points=[];autosize=1;strokeColor=none;fillColor=none;" parent="1" vertex="1">
          <mxGeometry x="249.85000000000002" y="750" width="170" height="30" as="geometry" />
        </mxCell>
        <mxCell id="auGSVoLlWJl7ejtN8B5e-35" value="" style="shape=internalStorage;whiteSpace=wrap;html=1;backgroundOutline=1;strokeColor=#030303;" parent="1" vertex="1">
          <mxGeometry x="189.65" y="1130" width="150" height="470" as="geometry" />
        </mxCell>
        <mxCell id="auGSVoLlWJl7ejtN8B5e-36" value="" style="rounded=0;whiteSpace=wrap;html=1;strokeColor=#030303;" parent="1" vertex="1">
          <mxGeometry x="339.65" y="1130" width="140" height="470" as="geometry" />
        </mxCell>
        <mxCell id="auGSVoLlWJl7ejtN8B5e-37" value="" style="endArrow=none;html=1;rounded=0;exitX=-0.011;exitY=0.031;exitDx=0;exitDy=0;exitPerimeter=0;entryX=1.005;entryY=0.032;entryDx=0;entryDy=0;entryPerimeter=0;" parent="1" edge="1">
          <mxGeometry width="50" height="50" relative="1" as="geometry">
            <mxPoint x="340.2600000000001" y="1150" as="sourcePoint" />
            <mxPoint x="482.4999999999999" y="1150.47" as="targetPoint" />
          </mxGeometry>
        </mxCell>
        <mxCell id="auGSVoLlWJl7ejtN8B5e-38" value="Пользователь" style="text;html=1;align=center;verticalAlign=middle;resizable=0;points=[];autosize=1;strokeColor=none;fillColor=none;" parent="1" vertex="1">
          <mxGeometry x="219.65" y="1130" width="100" height="30" as="geometry" />
        </mxCell>
        <mxCell id="auGSVoLlWJl7ejtN8B5e-39" value="Программа" style="text;html=1;align=center;verticalAlign=middle;resizable=0;points=[];autosize=1;strokeColor=none;fillColor=none;" parent="1" vertex="1">
          <mxGeometry x="362.15" y="1130" width="90" height="30" as="geometry" />
        </mxCell>
        <mxCell id="auGSVoLlWJl7ejtN8B5e-40" style="edgeStyle=orthogonalEdgeStyle;rounded=0;orthogonalLoop=1;jettySize=auto;html=1;exitX=0.5;exitY=1;exitDx=0;exitDy=0;entryX=0.5;entryY=0;entryDx=0;entryDy=0;" parent="1" source="auGSVoLlWJl7ejtN8B5e-41" edge="1">
          <mxGeometry relative="1" as="geometry">
            <mxPoint x="409.65" y="1270" as="targetPoint" />
          </mxGeometry>
        </mxCell>
        <mxCell id="auGSVoLlWJl7ejtN8B5e-41" value="Запуск программы" style="rounded=1;whiteSpace=wrap;html=1;strokeColor=#030303;" parent="1" vertex="1">
          <mxGeometry x="219.65" y="1200" width="100" height="30" as="geometry" />
        </mxCell>
        <mxCell id="auGSVoLlWJl7ejtN8B5e-42" style="edgeStyle=orthogonalEdgeStyle;rounded=0;orthogonalLoop=1;jettySize=auto;html=1;exitX=0.5;exitY=1;exitDx=0;exitDy=0;entryX=0.5;entryY=0;entryDx=0;entryDy=0;" parent="1" source="auGSVoLlWJl7ejtN8B5e-43" edge="1">
          <mxGeometry relative="1" as="geometry">
            <mxPoint x="407.1500000000001" y="1370" as="targetPoint" />
          </mxGeometry>
        </mxCell>
        <mxCell id="auGSVoLlWJl7ejtN8B5e-43" value="Генерация данных" style="rounded=1;whiteSpace=wrap;html=1;strokeColor=#030303;" parent="1" vertex="1">
          <mxGeometry x="352.15" y="1270" width="110" height="80" as="geometry" />
        </mxCell>
        <mxCell id="auGSVoLlWJl7ejtN8B5e-46" style="edgeStyle=orthogonalEdgeStyle;rounded=0;orthogonalLoop=1;jettySize=auto;html=1;exitX=0.5;exitY=1;exitDx=0;exitDy=0;entryX=0.5;entryY=0;entryDx=0;entryDy=0;" parent="1" source="auGSVoLlWJl7ejtN8B5e-47" target="auGSVoLlWJl7ejtN8B5e-49" edge="1">
          <mxGeometry relative="1" as="geometry">
            <Array as="points">
              <mxPoint x="405" y="1440" />
              <mxPoint x="270" y="1440" />
            </Array>
            <mxPoint x="275" y="1470" as="targetPoint" />
          </mxGeometry>
        </mxCell>
        <mxCell id="auGSVoLlWJl7ejtN8B5e-47" value="Выводит результат" style="rounded=1;whiteSpace=wrap;html=1;strokeColor=#030303;" parent="1" vertex="1">
          <mxGeometry x="360" y="1370" width="90" height="30" as="geometry" />
        </mxCell>
        <mxCell id="auGSVoLlWJl7ejtN8B5e-48" style="edgeStyle=orthogonalEdgeStyle;rounded=0;orthogonalLoop=1;jettySize=auto;html=1;exitX=0.5;exitY=1;exitDx=0;exitDy=0;entryX=0.5;entryY=0;entryDx=0;entryDy=0;" parent="1" source="auGSVoLlWJl7ejtN8B5e-49" target="auGSVoLlWJl7ejtN8B5e-52" edge="1">
          <mxGeometry relative="1" as="geometry" />
        </mxCell>
        <mxCell id="auGSVoLlWJl7ejtN8B5e-49" value="Отображение результата" style="rounded=1;whiteSpace=wrap;html=1;strokeColor=#030303;" parent="1" vertex="1">
          <mxGeometry x="214.65" y="1480" width="110" height="30" as="geometry" />
        </mxCell>
        <mxCell id="auGSVoLlWJl7ejtN8B5e-50" style="edgeStyle=orthogonalEdgeStyle;rounded=0;orthogonalLoop=1;jettySize=auto;html=1;exitX=0.5;exitY=1;exitDx=0;exitDy=0;entryX=0.5;entryY=0;entryDx=0;entryDy=0;" parent="1" source="auGSVoLlWJl7ejtN8B5e-51" target="auGSVoLlWJl7ejtN8B5e-41" edge="1">
          <mxGeometry relative="1" as="geometry" />
        </mxCell>
        <mxCell id="auGSVoLlWJl7ejtN8B5e-51" value="" style="ellipse;whiteSpace=wrap;html=1;aspect=fixed;strokeColor=#030303;" parent="1" vertex="1">
          <mxGeometry x="259.65" y="1160" width="20" height="20" as="geometry" />
        </mxCell>
        <mxCell id="auGSVoLlWJl7ejtN8B5e-52" value="" style="ellipse;html=1;shape=endState;fillColor=#000000;strokeColor=#1a1a1a;" parent="1" vertex="1">
          <mxGeometry x="254.64999999999998" y="1540" width="30" height="30" as="geometry" />
        </mxCell>
        <mxCell id="auGSVoLlWJl7ejtN8B5e-54" value="" style="ellipse;whiteSpace=wrap;html=1;aspect=fixed;fillColor=#080707;" parent="1" vertex="1">
          <mxGeometry x="50" y="1945" width="30" height="30" as="geometry" />
        </mxCell>
        <mxCell id="auGSVoLlWJl7ejtN8B5e-61" style="edgeStyle=orthogonalEdgeStyle;rounded=0;orthogonalLoop=1;jettySize=auto;html=1;exitX=0.5;exitY=1;exitDx=0;exitDy=0;entryX=0.5;entryY=0;entryDx=0;entryDy=0;" parent="1" source="auGSVoLlWJl7ejtN8B5e-55" target="auGSVoLlWJl7ejtN8B5e-60" edge="1">
          <mxGeometry relative="1" as="geometry" />
        </mxCell>
        <mxCell id="auGSVoLlWJl7ejtN8B5e-55" value="" style="rounded=1;whiteSpace=wrap;html=1;" parent="1" vertex="1">
          <mxGeometry x="129.65" y="1915" width="160.35" height="85" as="geometry" />
        </mxCell>
        <mxCell id="auGSVoLlWJl7ejtN8B5e-56" value="" style="endArrow=none;html=1;rounded=0;entryX=1;entryY=0.25;entryDx=0;entryDy=0;exitX=0;exitY=0.25;exitDx=0;exitDy=0;" parent="1" source="auGSVoLlWJl7ejtN8B5e-55" target="auGSVoLlWJl7ejtN8B5e-55" edge="1">
          <mxGeometry width="50" height="50" relative="1" as="geometry">
            <mxPoint x="-20.349999999999994" y="2335" as="sourcePoint" />
            <mxPoint x="29.650000000000006" y="2285" as="targetPoint" />
            <Array as="points" />
          </mxGeometry>
        </mxCell>
        <mxCell id="auGSVoLlWJl7ejtN8B5e-57" value="Запуск программы" style="text;html=1;align=center;verticalAlign=middle;resizable=0;points=[];autosize=1;strokeColor=none;fillColor=none;" parent="1" vertex="1">
          <mxGeometry x="145" y="1915" width="130" height="30" as="geometry" />
        </mxCell>
        <mxCell id="auGSVoLlWJl7ejtN8B5e-58" value="Программа запустилась" style="text;html=1;align=center;verticalAlign=middle;resizable=0;points=[];autosize=1;strokeColor=none;fillColor=none;" parent="1" vertex="1">
          <mxGeometry x="130" y="1950" width="160" height="30" as="geometry" />
        </mxCell>
        <mxCell id="auGSVoLlWJl7ejtN8B5e-59" style="edgeStyle=orthogonalEdgeStyle;rounded=0;orthogonalLoop=1;jettySize=auto;html=1;exitX=1;exitY=0.5;exitDx=0;exitDy=0;entryX=0.013;entryY=0.333;entryDx=0;entryDy=0;entryPerimeter=0;" parent="1" source="auGSVoLlWJl7ejtN8B5e-54" target="auGSVoLlWJl7ejtN8B5e-58" edge="1">
          <mxGeometry relative="1" as="geometry" />
        </mxCell>
        <mxCell id="auGSVoLlWJl7ejtN8B5e-60" value="" style="ellipse;html=1;shape=endState;fillColor=#000000;strokeColor=#080808;" parent="1" vertex="1">
          <mxGeometry x="194.83" y="2050" width="30" height="30" as="geometry" />
        </mxCell>
        <mxCell id="auGSVoLlWJl7ejtN8B5e-64" value="" style="group" parent="1" vertex="1" connectable="0">
          <mxGeometry x="360" y="1820" width="355" height="360" as="geometry" />
        </mxCell>
        <mxCell id="auGSVoLlWJl7ejtN8B5e-65" value="" style="rounded=1;whiteSpace=wrap;html=1;" parent="auGSVoLlWJl7ejtN8B5e-64" vertex="1">
          <mxGeometry width="355" height="360" as="geometry" />
        </mxCell>
        <mxCell id="auGSVoLlWJl7ejtN8B5e-66" value="Программа" style="text;html=1;align=center;verticalAlign=middle;resizable=0;points=[];autosize=1;strokeColor=none;fillColor=none;" parent="auGSVoLlWJl7ejtN8B5e-64" vertex="1">
          <mxGeometry x="132.5" y="12" width="90" height="30" as="geometry" />
        </mxCell>
        <mxCell id="auGSVoLlWJl7ejtN8B5e-67" value="" style="ellipse;whiteSpace=wrap;html=1;aspect=fixed;fillColor=#080707;" parent="auGSVoLlWJl7ejtN8B5e-64" vertex="1">
          <mxGeometry x="165" y="60" width="30" height="30" as="geometry" />
        </mxCell>
        <mxCell id="auGSVoLlWJl7ejtN8B5e-68" value="Данные сгенерированы" style="rounded=1;whiteSpace=wrap;html=1;" parent="auGSVoLlWJl7ejtN8B5e-64" vertex="1">
          <mxGeometry x="111.25" y="120" width="137.5" height="60" as="geometry" />
        </mxCell>
        <mxCell id="auGSVoLlWJl7ejtN8B5e-69" value="" style="endArrow=none;html=1;rounded=0;entryX=0.992;entryY=0.411;entryDx=0;entryDy=0;entryPerimeter=0;exitX=0.005;exitY=0.411;exitDx=0;exitDy=0;exitPerimeter=0;" parent="auGSVoLlWJl7ejtN8B5e-64" source="auGSVoLlWJl7ejtN8B5e-68" target="auGSVoLlWJl7ejtN8B5e-68" edge="1">
          <mxGeometry width="50" height="50" relative="1" as="geometry">
            <mxPoint x="116.25" y="145" as="sourcePoint" />
            <mxPoint x="66.25" y="50" as="targetPoint" />
            <Array as="points" />
          </mxGeometry>
        </mxCell>
        <mxCell id="auGSVoLlWJl7ejtN8B5e-70" value="Генерация данных" style="text;html=1;align=center;verticalAlign=middle;resizable=0;points=[];autosize=1;strokeColor=none;fillColor=none;" parent="auGSVoLlWJl7ejtN8B5e-64" vertex="1">
          <mxGeometry x="115" y="120" width="130" height="30" as="geometry" />
        </mxCell>
        <mxCell id="auGSVoLlWJl7ejtN8B5e-71" style="edgeStyle=orthogonalEdgeStyle;rounded=0;orthogonalLoop=1;jettySize=auto;html=1;exitX=0.5;exitY=1;exitDx=0;exitDy=0;" parent="auGSVoLlWJl7ejtN8B5e-64" source="auGSVoLlWJl7ejtN8B5e-67" target="auGSVoLlWJl7ejtN8B5e-70" edge="1">
          <mxGeometry relative="1" as="geometry" />
        </mxCell>
        <mxCell id="auGSVoLlWJl7ejtN8B5e-72" value="" style="ellipse;html=1;shape=endState;fillColor=#000000;strokeColor=#080808;" parent="auGSVoLlWJl7ejtN8B5e-64" vertex="1">
          <mxGeometry x="55" y="230" width="30" height="30" as="geometry" />
        </mxCell>
        <mxCell id="auGSVoLlWJl7ejtN8B5e-73" style="edgeStyle=orthogonalEdgeStyle;rounded=0;orthogonalLoop=1;jettySize=auto;html=1;exitX=0.5;exitY=1;exitDx=0;exitDy=0;entryX=0.5;entryY=0;entryDx=0;entryDy=0;" parent="auGSVoLlWJl7ejtN8B5e-64" source="auGSVoLlWJl7ejtN8B5e-68" target="auGSVoLlWJl7ejtN8B5e-72" edge="1">
          <mxGeometry relative="1" as="geometry" />
        </mxCell>
        <mxCell id="auGSVoLlWJl7ejtN8B5e-87" style="edgeStyle=orthogonalEdgeStyle;rounded=0;orthogonalLoop=1;jettySize=auto;html=1;exitX=0.5;exitY=1;exitDx=0;exitDy=0;entryX=0.5;entryY=0;entryDx=0;entryDy=0;" parent="auGSVoLlWJl7ejtN8B5e-64" source="auGSVoLlWJl7ejtN8B5e-74" target="auGSVoLlWJl7ejtN8B5e-86" edge="1">
          <mxGeometry relative="1" as="geometry" />
        </mxCell>
        <mxCell id="auGSVoLlWJl7ejtN8B5e-74" value="График отображен" style="rounded=1;whiteSpace=wrap;html=1;" parent="auGSVoLlWJl7ejtN8B5e-64" vertex="1">
          <mxGeometry x="200" y="230" width="125" height="60" as="geometry" />
        </mxCell>
        <mxCell id="auGSVoLlWJl7ejtN8B5e-75" value="" style="endArrow=none;html=1;rounded=0;entryX=0.992;entryY=0.411;entryDx=0;entryDy=0;entryPerimeter=0;exitX=0.005;exitY=0.411;exitDx=0;exitDy=0;exitPerimeter=0;" parent="auGSVoLlWJl7ejtN8B5e-64" source="auGSVoLlWJl7ejtN8B5e-74" target="auGSVoLlWJl7ejtN8B5e-74" edge="1">
          <mxGeometry width="50" height="50" relative="1" as="geometry">
            <mxPoint x="205" y="255" as="sourcePoint" />
            <mxPoint x="155" y="160" as="targetPoint" />
            <Array as="points" />
          </mxGeometry>
        </mxCell>
        <mxCell id="auGSVoLlWJl7ejtN8B5e-76" style="edgeStyle=orthogonalEdgeStyle;rounded=0;orthogonalLoop=1;jettySize=auto;html=1;exitX=0.5;exitY=1;exitDx=0;exitDy=0;" parent="auGSVoLlWJl7ejtN8B5e-64" source="auGSVoLlWJl7ejtN8B5e-74" target="auGSVoLlWJl7ejtN8B5e-74" edge="1">
          <mxGeometry relative="1" as="geometry" />
        </mxCell>
        <mxCell id="auGSVoLlWJl7ejtN8B5e-77" value="Отображение графика" style="text;html=1;align=center;verticalAlign=middle;resizable=0;points=[];autosize=1;strokeColor=none;fillColor=none;" parent="auGSVoLlWJl7ejtN8B5e-64" vertex="1">
          <mxGeometry x="187.5" y="230" width="150" height="30" as="geometry" />
        </mxCell>
        <mxCell id="auGSVoLlWJl7ejtN8B5e-78" value="" style="line;strokeWidth=1;fillColor=none;align=left;verticalAlign=middle;spacingTop=-1;spacingLeft=3;spacingRight=3;rotatable=0;labelPosition=right;points=[];portConstraint=eastwest;strokeColor=inherit;" parent="auGSVoLlWJl7ejtN8B5e-64" vertex="1">
          <mxGeometry y="42" width="355" height="8" as="geometry" />
        </mxCell>
        <mxCell id="auGSVoLlWJl7ejtN8B5e-79" style="edgeStyle=orthogonalEdgeStyle;rounded=0;orthogonalLoop=1;jettySize=auto;html=1;exitX=0.5;exitY=1;exitDx=0;exitDy=0;" parent="auGSVoLlWJl7ejtN8B5e-64" source="auGSVoLlWJl7ejtN8B5e-68" target="auGSVoLlWJl7ejtN8B5e-77" edge="1">
          <mxGeometry relative="1" as="geometry" />
        </mxCell>
        <mxCell id="auGSVoLlWJl7ejtN8B5e-80" value="" style="endArrow=none;html=1;rounded=0;entryX=0.002;entryY=0.168;entryDx=0;entryDy=0;entryPerimeter=0;exitX=0.997;exitY=0.168;exitDx=0;exitDy=0;exitPerimeter=0;" parent="auGSVoLlWJl7ejtN8B5e-64" source="auGSVoLlWJl7ejtN8B5e-65" target="auGSVoLlWJl7ejtN8B5e-65" edge="1">
          <mxGeometry width="50" height="50" relative="1" as="geometry">
            <mxPoint x="-90" y="255" as="sourcePoint" />
            <mxPoint x="-40" y="205" as="targetPoint" />
          </mxGeometry>
        </mxCell>
        <mxCell id="auGSVoLlWJl7ejtN8B5e-86" value="" style="ellipse;html=1;shape=endState;fillColor=#000000;strokeColor=#080808;" parent="auGSVoLlWJl7ejtN8B5e-64" vertex="1">
          <mxGeometry x="250" y="320" width="30" height="30" as="geometry" />
        </mxCell>
        <mxCell id="auGSVoLlWJl7ejtN8B5e-90" value="Да" style="text;html=1;align=center;verticalAlign=middle;resizable=0;points=[];autosize=1;strokeColor=none;fillColor=none;" parent="auGSVoLlWJl7ejtN8B5e-64" vertex="1">
          <mxGeometry x="187.5" y="180" width="40" height="30" as="geometry" />
        </mxCell>
        <mxCell id="auGSVoLlWJl7ejtN8B5e-91" value="Нет" style="text;html=1;align=center;verticalAlign=middle;resizable=0;points=[];autosize=1;strokeColor=none;fillColor=none;" parent="auGSVoLlWJl7ejtN8B5e-64" vertex="1">
          <mxGeometry x="132.5" y="180" width="40" height="30" as="geometry" />
        </mxCell>
        <mxCell id="auGSVoLlWJl7ejtN8B5e-84" style="edgeStyle=orthogonalEdgeStyle;rounded=0;orthogonalLoop=1;jettySize=auto;html=1;entryX=0;entryY=0.403;entryDx=0;entryDy=0;entryPerimeter=0;" parent="1" source="auGSVoLlWJl7ejtN8B5e-58" target="auGSVoLlWJl7ejtN8B5e-65" edge="1">
          <mxGeometry relative="1" as="geometry" />
        </mxCell>
        <mxCell id="auGSVoLlWJl7ejtN8B5e-88" value="Да" style="text;html=1;align=center;verticalAlign=middle;resizable=0;points=[];autosize=1;strokeColor=none;fillColor=none;" parent="1" vertex="1">
          <mxGeometry x="299.65" y="1942.5" width="40" height="30" as="geometry" />
        </mxCell>
        <mxCell id="auGSVoLlWJl7ejtN8B5e-89" value="Нет" style="text;html=1;align=center;verticalAlign=middle;resizable=0;points=[];autosize=1;strokeColor=none;fillColor=none;" parent="1" vertex="1">
          <mxGeometry x="207.5" y="2008" width="40" height="30" as="geometry" />
        </mxCell>
        <mxCell id="auGSVoLlWJl7ejtN8B5e-92" style="edgeStyle=orthogonalEdgeStyle;rounded=0;orthogonalLoop=1;jettySize=auto;html=1;exitX=0.5;exitY=1;exitDx=0;exitDy=0;entryX=0.5;entryY=0;entryDx=0;entryDy=0;dashed=1;endArrow=block;endFill=0;" parent="1" source="auGSVoLlWJl7ejtN8B5e-93" target="auGSVoLlWJl7ejtN8B5e-98" edge="1">
          <mxGeometry relative="1" as="geometry">
            <Array as="points">
              <mxPoint x="525" y="2580" />
              <mxPoint x="445" y="2580" />
            </Array>
          </mxGeometry>
        </mxCell>
        <mxCell id="auGSVoLlWJl7ejtN8B5e-93" value="График" style="swimlane;fontStyle=2;align=left;verticalAlign=top;childLayout=stackLayout;horizontal=1;startSize=26;horizontalStack=0;resizeParent=1;resizeLast=0;collapsible=1;marginBottom=0;rounded=0;shadow=0;strokeWidth=1;" parent="1" vertex="1">
          <mxGeometry x="472.5" y="2440" width="110" height="88" as="geometry">
            <mxRectangle x="220" y="120" width="160" height="26" as="alternateBounds" />
          </mxGeometry>
        </mxCell>
        <mxCell id="auGSVoLlWJl7ejtN8B5e-97" value="graphCanvas" style="text;align=left;verticalAlign=top;spacingLeft=4;spacingRight=4;overflow=hidden;rotatable=0;points=[[0,0.5],[1,0.5]];portConstraint=eastwest;" parent="auGSVoLlWJl7ejtN8B5e-93" vertex="1">
          <mxGeometry y="26" width="110" height="24" as="geometry" />
        </mxCell>
        <mxCell id="auGSVoLlWJl7ejtN8B5e-96" value="" style="line;html=1;strokeWidth=1;align=left;verticalAlign=middle;spacingTop=-1;spacingLeft=3;spacingRight=3;rotatable=0;labelPosition=right;points=[];portConstraint=eastwest;dashed=1;" parent="auGSVoLlWJl7ejtN8B5e-93" vertex="1">
          <mxGeometry y="50" width="110" height="8" as="geometry" />
        </mxCell>
        <mxCell id="auGSVoLlWJl7ejtN8B5e-110" value="DrawChart" style="text;html=1;align=center;verticalAlign=middle;resizable=0;points=[];autosize=1;strokeColor=none;fillColor=none;" parent="auGSVoLlWJl7ejtN8B5e-93" vertex="1">
          <mxGeometry y="58" width="110" height="30" as="geometry" />
        </mxCell>
        <mxCell id="auGSVoLlWJl7ejtN8B5e-98" value="Интерфейс : &#xa;IGraph" style="swimlane;fontStyle=2;align=left;verticalAlign=top;childLayout=stackLayout;horizontal=1;startSize=40;horizontalStack=0;resizeParent=1;resizeLast=0;collapsible=1;marginBottom=0;rounded=0;shadow=0;strokeWidth=1;" parent="1" vertex="1">
          <mxGeometry x="330" y="2620" width="230" height="110" as="geometry">
            <mxRectangle x="220" y="120" width="160" height="26" as="alternateBounds" />
          </mxGeometry>
        </mxCell>
        <mxCell id="auGSVoLlWJl7ejtN8B5e-99" value="                                                              " style="text;align=left;verticalAlign=top;spacingLeft=4;spacingRight=4;overflow=hidden;rotatable=0;points=[[0,0.5],[1,0.5]];portConstraint=eastwest;" parent="auGSVoLlWJl7ejtN8B5e-98" vertex="1">
          <mxGeometry y="40" width="230" height="26" as="geometry" />
        </mxCell>
        <mxCell id="auGSVoLlWJl7ejtN8B5e-100" value="" style="line;html=1;strokeWidth=1;align=left;verticalAlign=middle;spacingTop=-1;spacingLeft=3;spacingRight=3;rotatable=0;labelPosition=right;points=[];portConstraint=eastwest;dashed=1;" parent="auGSVoLlWJl7ejtN8B5e-98" vertex="1">
          <mxGeometry y="66" width="230" height="8" as="geometry" />
        </mxCell>
        <mxCell id="auGSVoLlWJl7ejtN8B5e-101" value="&lt;pre style=&quot;box-sizing: border-box; font-variant-numeric: normal; font-variant-east-asian: normal; font-variant-alternates: normal; font-variant-position: normal; font-variant-emoji: normal; font-kerning: auto; font-optical-sizing: auto; font-feature-settings: normal; font-variation-settings: normal; font-stretch: normal; font-size: 0.875rem; line-height: 1.25; font-family: var(--font-family-monospace); font-size-adjust: 0.5; margin-top: 0px; margin-bottom: 0px; overflow: hidden; --color-scrollbar: var(--color-scrollbar-code); text-wrap-mode: wrap; --color-type: #56b6c2; --color-keyword: #c678dd; --color-class: #e06c75; --color-string: #98c379; --color-template: #d19a66; --color-selector: #e06c75; --color-function: #61aeee; --color-comment: #5c6370; --color-section: #e06c75; --color-variable: #d19a66; --color-attribute: #d19a66; --color-link: #d19a66; --color-tag: #e06c75;&quot; data-language=&quot;plaintext&quot; data-entity-type=&quot;MessageEntityPre&quot; class=&quot;code-block&quot;&gt;&lt;pre style=&quot;box-sizing: border-box; font-variant-numeric: normal; font-variant-east-asian: normal; font-variant-alternates: normal; font-variant-position: normal; font-variant-emoji: normal; font-kerning: auto; font-optical-sizing: auto; font-feature-settings: normal; font-variation-settings: normal; font-stretch: normal; font-size: 0.875rem; line-height: 1.25; font-family: var(--font-family-monospace); font-size-adjust: 0.5; margin-top: 0px; margin-bottom: 0px; overflow: hidden; --color-scrollbar: var(--color-scrollbar-code); text-wrap-mode: wrap; --color-type: #56b6c2; --color-keyword: #c678dd; --color-class: #e06c75; --color-string: #98c379; --color-template: #d19a66; --color-selector: #e06c75; --color-function: #61aeee; --color-comment: #5c6370; --color-section: #e06c75; --color-variable: #d19a66; --color-attribute: #d19a66; --color-link: #d19a66; --color-tag: #e06c75;&quot; data-language=&quot;plaintext&quot; data-entity-type=&quot;MessageEntityPre&quot; class=&quot;code-block&quot;&gt;&lt;font style=&quot;color: rgb(0, 0, 0);&quot;&gt; +DrawCanvas()&lt;/font&gt;&lt;/pre&gt;&lt;/pre&gt;" style="text;html=1;align=left;verticalAlign=middle;resizable=0;points=[];autosize=1;strokeColor=none;fillColor=none;" parent="auGSVoLlWJl7ejtN8B5e-98" vertex="1">
          <mxGeometry y="74" width="230" height="30" as="geometry" />
        </mxCell>
        <mxCell id="auGSVoLlWJl7ejtN8B5e-103" style="edgeStyle=orthogonalEdgeStyle;rounded=0;orthogonalLoop=1;jettySize=auto;html=1;exitX=0.5;exitY=1;exitDx=0;exitDy=0;entryX=0.5;entryY=0;entryDx=0;entryDy=0;dashed=1;endArrow=block;endFill=0;" parent="1" source="auGSVoLlWJl7ejtN8B5e-104" target="auGSVoLlWJl7ejtN8B5e-98" edge="1">
          <mxGeometry relative="1" as="geometry">
            <Array as="points">
              <mxPoint x="315" y="2580" />
              <mxPoint x="445" y="2580" />
            </Array>
          </mxGeometry>
        </mxCell>
        <mxCell id="auGSVoLlWJl7ejtN8B5e-104" value="&lt;p style=&quot;margin: 4px 0px 0px;&quot;&gt;&lt;i style=&quot;&quot;&gt;&amp;nbsp;Класс&amp;nbsp;&lt;/i&gt;&lt;span style=&quot;background-color: transparent;&quot;&gt;&lt;i&gt;PressureGraph&lt;/i&gt;&lt;/span&gt;&lt;/p&gt;&lt;p style=&quot;margin:0px;margin-left:4px;&quot;&gt;- canvas: Canvas&amp;nbsp; &amp;nbsp;&amp;nbsp;&lt;/p&gt;&lt;p style=&quot;margin:0px;margin-left:4px;&quot;&gt;- pressureValues: List():double&amp;gt;&lt;/p&gt;&lt;p style=&quot;margin:0px;margin-left:4px;&quot;&gt;- pressureData: IPressureData&amp;nbsp;&lt;/p&gt;&lt;hr style=&quot;border-style:solid;&quot; size=&quot;1&quot;&gt;&lt;p style=&quot;margin:0px;margin-left:4px;&quot;&gt;+ DrawAxes()&lt;/p&gt;&lt;p style=&quot;margin:0px;margin-left:4px;&quot;&gt;+ DrawCanvas()&amp;nbsp;&amp;nbsp;&lt;/p&gt;&lt;p style=&quot;margin:0px;margin-left:4px;&quot;&gt;&lt;br&gt;&lt;/p&gt;" style="verticalAlign=top;align=left;overflow=fill;html=1;whiteSpace=wrap;" parent="1" vertex="1">
          <mxGeometry x="130" y="2434" width="290" height="100" as="geometry" />
        </mxCell>
        <mxCell id="auGSVoLlWJl7ejtN8B5e-105" value="" style="endArrow=none;html=1;rounded=0;exitX=0;exitY=0.2;exitDx=0;exitDy=0;exitPerimeter=0;entryX=1;entryY=0.2;entryDx=0;entryDy=0;entryPerimeter=0;" parent="1" source="auGSVoLlWJl7ejtN8B5e-104" target="auGSVoLlWJl7ejtN8B5e-104" edge="1">
          <mxGeometry width="50" height="50" relative="1" as="geometry">
            <mxPoint x="420" y="2570" as="sourcePoint" />
            <mxPoint x="470" y="2520" as="targetPoint" />
          </mxGeometry>
        </mxCell>
        <mxCell id="auGSVoLlWJl7ejtN8B5e-112" value="" style="shape=folder;fontStyle=1;spacingTop=10;tabWidth=140;tabHeight=40;tabPosition=left;html=1;" parent="1" vertex="1">
          <mxGeometry x="52.5" y="2900" width="850" height="350" as="geometry" />
        </mxCell>
        <mxCell id="auGSVoLlWJl7ejtN8B5e-113" value="Построение графика&lt;div&gt;&amp;nbsp;давления в Туле&lt;/div&gt;" style="text;html=1;align=center;verticalAlign=middle;resizable=0;points=[];autosize=1;strokeColor=none;fillColor=none;" parent="1" vertex="1">
          <mxGeometry x="52.5" y="2900" width="140" height="40" as="geometry" />
        </mxCell>
        <mxCell id="auGSVoLlWJl7ejtN8B5e-114" value="" style="group" parent="1" vertex="1" connectable="0">
          <mxGeometry x="72.5" y="2960" width="177" height="90" as="geometry" />
        </mxCell>
        <mxCell id="auGSVoLlWJl7ejtN8B5e-115" value="Интерфейс и класс&lt;div&gt;&amp;nbsp;для данных давления&lt;/div&gt;" style="html=1;dropTarget=0;" parent="auGSVoLlWJl7ejtN8B5e-114" vertex="1">
          <mxGeometry width="177" height="90" as="geometry" />
        </mxCell>
        <mxCell id="auGSVoLlWJl7ejtN8B5e-116" value="" style="shape=module;jettyWidth=8;jettyHeight=4;" parent="auGSVoLlWJl7ejtN8B5e-115" vertex="1">
          <mxGeometry x="1" width="20" height="20" relative="1" as="geometry">
            <mxPoint x="-27" y="7" as="offset" />
          </mxGeometry>
        </mxCell>
        <mxCell id="auGSVoLlWJl7ejtN8B5e-117" value="&quot;компонент : код&quot;" style="text;html=1;align=center;verticalAlign=middle;resizable=0;points=[];autosize=1;strokeColor=none;fillColor=none;" parent="auGSVoLlWJl7ejtN8B5e-114" vertex="1">
          <mxGeometry x="20" width="120" height="30" as="geometry" />
        </mxCell>
        <mxCell id="auGSVoLlWJl7ejtN8B5e-118" value="" style="group" parent="1" vertex="1" connectable="0">
          <mxGeometry x="404.5" y="2960" width="230" height="150" as="geometry" />
        </mxCell>
        <mxCell id="auGSVoLlWJl7ejtN8B5e-119" value="Визуализация графика" style="html=1;dropTarget=0;" parent="auGSVoLlWJl7ejtN8B5e-118" vertex="1">
          <mxGeometry width="180" height="90" as="geometry" />
        </mxCell>
        <mxCell id="auGSVoLlWJl7ejtN8B5e-120" value="" style="shape=module;jettyWidth=8;jettyHeight=4;" parent="auGSVoLlWJl7ejtN8B5e-119" vertex="1">
          <mxGeometry x="1" width="20" height="20" relative="1" as="geometry">
            <mxPoint x="-27" y="7" as="offset" />
          </mxGeometry>
        </mxCell>
        <mxCell id="auGSVoLlWJl7ejtN8B5e-121" value="&quot;компонент : программа&quot;" style="text;html=1;align=center;verticalAlign=middle;resizable=0;points=[];autosize=1;strokeColor=none;fillColor=none;" parent="auGSVoLlWJl7ejtN8B5e-118" vertex="1">
          <mxGeometry width="160" height="30" as="geometry" />
        </mxCell>
        <mxCell id="auGSVoLlWJl7ejtN8B5e-122" value="" style="whiteSpace=wrap;html=1;aspect=fixed;fillColor=#0d0d0d;" parent="auGSVoLlWJl7ejtN8B5e-118" vertex="1">
          <mxGeometry x="-10" y="35" width="20" height="20" as="geometry" />
        </mxCell>
        <mxCell id="auGSVoLlWJl7ejtN8B5e-123" value="" style="whiteSpace=wrap;html=1;aspect=fixed;fillColor=#0d0d0d;" parent="auGSVoLlWJl7ejtN8B5e-118" vertex="1">
          <mxGeometry x="80" y="80" width="20" height="20" as="geometry" />
        </mxCell>
        <mxCell id="auGSVoLlWJl7ejtN8B5e-124" value="" style="whiteSpace=wrap;html=1;aspect=fixed;fillColor=#0d0d0d;" parent="auGSVoLlWJl7ejtN8B5e-118" vertex="1">
          <mxGeometry x="170" y="35" width="20" height="20" as="geometry" />
        </mxCell>
        <mxCell id="auGSVoLlWJl7ejtN8B5e-125" value="" style="rounded=0;orthogonalLoop=1;jettySize=auto;html=1;endArrow=none;endFill=0;sketch=0;targetPerimeterSpacing=0;exitX=1;exitY=0.5;exitDx=0;exitDy=0;startArrow=none;" parent="1" source="auGSVoLlWJl7ejtN8B5e-129" target="auGSVoLlWJl7ejtN8B5e-127" edge="1">
          <mxGeometry relative="1" as="geometry">
            <mxPoint x="279.5" y="3005" as="sourcePoint" />
          </mxGeometry>
        </mxCell>
        <mxCell id="auGSVoLlWJl7ejtN8B5e-126" value="" style="rounded=0;orthogonalLoop=1;jettySize=auto;html=1;endArrow=halfCircle;endFill=0;entryX=0.5;entryY=0.5;endSize=6;strokeWidth=1;sketch=0;exitX=0;exitY=0.5;exitDx=0;exitDy=0;" parent="1" source="auGSVoLlWJl7ejtN8B5e-119" target="auGSVoLlWJl7ejtN8B5e-127" edge="1">
          <mxGeometry relative="1" as="geometry">
            <mxPoint x="319.5" y="3005" as="sourcePoint" />
            <Array as="points">
              <mxPoint x="379.5" y="3005" />
            </Array>
          </mxGeometry>
        </mxCell>
        <mxCell id="auGSVoLlWJl7ejtN8B5e-127" value="" style="ellipse;whiteSpace=wrap;html=1;align=center;aspect=fixed;resizable=0;points=[];outlineConnect=0;sketch=0;strokeColor=#000000;fillColor=#000000;" parent="1" vertex="1">
          <mxGeometry x="329.5" y="3000" width="10" height="10" as="geometry" />
        </mxCell>
        <mxCell id="auGSVoLlWJl7ejtN8B5e-128" value="" style="rounded=0;orthogonalLoop=1;jettySize=auto;html=1;endArrow=none;endFill=0;sketch=0;sourcePerimeterSpacing=0;exitX=1;exitY=0.5;exitDx=0;exitDy=0;" parent="1" source="auGSVoLlWJl7ejtN8B5e-115" target="auGSVoLlWJl7ejtN8B5e-129" edge="1">
          <mxGeometry relative="1" as="geometry">
            <mxPoint x="249.5" y="3005" as="sourcePoint" />
            <mxPoint x="294.5" y="3005" as="targetPoint" />
          </mxGeometry>
        </mxCell>
        <mxCell id="auGSVoLlWJl7ejtN8B5e-129" value="" style="whiteSpace=wrap;html=1;aspect=fixed;fillColor=#0d0d0d;" parent="1" vertex="1">
          <mxGeometry x="239.5" y="2995" width="20" height="20" as="geometry" />
        </mxCell>
        <mxCell id="auGSVoLlWJl7ejtN8B5e-130" value="Реализация метода&lt;div&gt;интерфейса&lt;/div&gt;" style="text;html=1;align=center;verticalAlign=middle;resizable=0;points=[];autosize=1;strokeColor=none;fillColor=none;" parent="1" vertex="1">
          <mxGeometry x="245.5" y="2965" width="130" height="40" as="geometry" />
        </mxCell>
        <mxCell id="auGSVoLlWJl7ejtN8B5e-131" value="" style="group" parent="1" vertex="1" connectable="0">
          <mxGeometry x="404.5" y="3130" width="180" height="90" as="geometry" />
        </mxCell>
        <mxCell id="auGSVoLlWJl7ejtN8B5e-132" value="Метод для инициализации&lt;div&gt;&amp;nbsp;и отрисовки графика&lt;/div&gt;" style="html=1;dropTarget=0;" parent="auGSVoLlWJl7ejtN8B5e-131" vertex="1">
          <mxGeometry width="180" height="90" as="geometry" />
        </mxCell>
        <mxCell id="auGSVoLlWJl7ejtN8B5e-133" value="" style="shape=module;jettyWidth=8;jettyHeight=4;" parent="auGSVoLlWJl7ejtN8B5e-132" vertex="1">
          <mxGeometry x="1" width="20" height="20" relative="1" as="geometry">
            <mxPoint x="-27" y="7" as="offset" />
          </mxGeometry>
        </mxCell>
        <mxCell id="auGSVoLlWJl7ejtN8B5e-134" value="&quot;компонент : программа&quot;" style="text;html=1;align=center;verticalAlign=middle;resizable=0;points=[];autosize=1;strokeColor=none;fillColor=none;" parent="auGSVoLlWJl7ejtN8B5e-131" vertex="1">
          <mxGeometry width="160" height="30" as="geometry" />
        </mxCell>
        <mxCell id="auGSVoLlWJl7ejtN8B5e-135" value="" style="whiteSpace=wrap;html=1;aspect=fixed;fillColor=#0d0d0d;" parent="auGSVoLlWJl7ejtN8B5e-131" vertex="1">
          <mxGeometry x="80" y="-10" width="20" height="20" as="geometry" />
        </mxCell>
        <mxCell id="auGSVoLlWJl7ejtN8B5e-136" value="" style="rounded=0;orthogonalLoop=1;jettySize=auto;html=1;endArrow=none;endFill=0;sketch=0;sourcePerimeterSpacing=0;targetPerimeterSpacing=0;exitX=0.5;exitY=0;exitDx=0;exitDy=0;" parent="1" source="auGSVoLlWJl7ejtN8B5e-135" target="auGSVoLlWJl7ejtN8B5e-138" edge="1">
          <mxGeometry relative="1" as="geometry">
            <mxPoint x="599.5" y="3115" as="sourcePoint" />
          </mxGeometry>
        </mxCell>
        <mxCell id="auGSVoLlWJl7ejtN8B5e-137" value="" style="rounded=0;orthogonalLoop=1;jettySize=auto;html=1;endArrow=halfCircle;endFill=0;endSize=6;strokeWidth=1;sketch=0;" parent="1" edge="1">
          <mxGeometry relative="1" as="geometry">
            <mxPoint x="493.7857142857142" y="3060" as="sourcePoint" />
            <mxPoint x="494.5" y="3085" as="targetPoint" />
          </mxGeometry>
        </mxCell>
        <mxCell id="auGSVoLlWJl7ejtN8B5e-138" value="" style="ellipse;whiteSpace=wrap;html=1;align=center;aspect=fixed;resizable=0;points=[];outlineConnect=0;sketch=0;fillColor=#050505;" parent="1" vertex="1">
          <mxGeometry x="489.5" y="3080" width="10" height="10" as="geometry" />
        </mxCell>
        <mxCell id="auGSVoLlWJl7ejtN8B5e-139" value="" style="group" parent="1" vertex="1" connectable="0">
          <mxGeometry x="709.5" y="2960" width="183" height="100" as="geometry" />
        </mxCell>
        <mxCell id="auGSVoLlWJl7ejtN8B5e-140" value="Компьютер" style="html=1;dropTarget=0;" parent="auGSVoLlWJl7ejtN8B5e-139" vertex="1">
          <mxGeometry width="183" height="90" as="geometry" />
        </mxCell>
        <mxCell id="auGSVoLlWJl7ejtN8B5e-141" value="" style="shape=module;jettyWidth=8;jettyHeight=4;" parent="auGSVoLlWJl7ejtN8B5e-140" vertex="1">
          <mxGeometry x="1" width="20" height="20" relative="1" as="geometry">
            <mxPoint x="-27" y="7" as="offset" />
          </mxGeometry>
        </mxCell>
        <mxCell id="auGSVoLlWJl7ejtN8B5e-142" value="&quot;компонент : устройство&quot;" style="text;html=1;align=center;verticalAlign=middle;resizable=0;points=[];autosize=1;strokeColor=none;fillColor=none;" parent="auGSVoLlWJl7ejtN8B5e-139" vertex="1">
          <mxGeometry width="160" height="30" as="geometry" />
        </mxCell>
        <mxCell id="auGSVoLlWJl7ejtN8B5e-143" value="" style="whiteSpace=wrap;html=1;aspect=fixed;fillColor=#0d0d0d;" parent="auGSVoLlWJl7ejtN8B5e-139" vertex="1">
          <mxGeometry x="-10.166666666666666" y="35" width="20" height="20" as="geometry" />
        </mxCell>
        <mxCell id="auGSVoLlWJl7ejtN8B5e-144" value="" style="rounded=0;orthogonalLoop=1;jettySize=auto;html=1;endArrow=halfCircle;endFill=0;endSize=6;strokeWidth=1;sketch=0;" parent="1" edge="1">
          <mxGeometry relative="1" as="geometry">
            <mxPoint x="709.5" y="3005" as="sourcePoint" />
            <mxPoint x="640.5" y="3005" as="targetPoint" />
          </mxGeometry>
        </mxCell>
        <mxCell id="auGSVoLlWJl7ejtN8B5e-145" value="" style="rounded=0;orthogonalLoop=1;jettySize=auto;html=1;endArrow=none;endFill=0;sketch=0;targetPerimeterSpacing=0;startArrow=none;" parent="1" target="auGSVoLlWJl7ejtN8B5e-146" edge="1">
          <mxGeometry relative="1" as="geometry">
            <mxPoint x="586.5" y="3005" as="sourcePoint" />
          </mxGeometry>
        </mxCell>
        <mxCell id="auGSVoLlWJl7ejtN8B5e-146" value="" style="ellipse;whiteSpace=wrap;html=1;align=center;aspect=fixed;resizable=0;points=[];outlineConnect=0;sketch=0;fillColor=#050505;" parent="1" vertex="1">
          <mxGeometry x="634.5" y="3000" width="10" height="10" as="geometry" />
        </mxCell>
        <mxCell id="auGSVoLlWJl7ejtN8B5e-147" value="График" style="text;html=1;align=center;verticalAlign=middle;resizable=0;points=[];autosize=1;strokeColor=none;fillColor=none;" parent="1" vertex="1">
          <mxGeometry x="609.5" y="2970" width="60" height="30" as="geometry" />
        </mxCell>
        <mxCell id="auGSVoLlWJl7ejtN8B5e-148" value="Данные" style="text;html=1;align=center;verticalAlign=middle;resizable=0;points=[];autosize=1;strokeColor=none;fillColor=none;rotation=-90;" parent="1" vertex="1">
          <mxGeometry x="489.5" y="3075" width="70" height="30" as="geometry" />
        </mxCell>
        <mxCell id="auGSVoLlWJl7ejtN8B5e-150" style="edgeStyle=orthogonalEdgeStyle;shape=connector;rounded=0;orthogonalLoop=1;jettySize=auto;html=1;entryX=1;entryY=0.5;entryDx=0;entryDy=0;strokeColor=default;align=center;verticalAlign=middle;fontFamily=Helvetica;fontSize=11;fontColor=default;labelBackgroundColor=default;endArrow=none;endFill=0;exitX=0;exitY=0.5;exitDx=0;exitDy=0;" parent="1" source="auGSVoLlWJl7ejtN8B5e-158" target="auGSVoLlWJl7ejtN8B5e-155" edge="1">
          <mxGeometry relative="1" as="geometry">
            <mxPoint x="304.68000000000006" y="3529.4000000000005" as="targetPoint" />
          </mxGeometry>
        </mxCell>
        <mxCell id="auGSVoLlWJl7ejtN8B5e-151" value="" style="endArrow=open;html=1;rounded=0;align=center;verticalAlign=top;endFill=0;labelBackgroundColor=none;endSize=6;strokeColor=default;fontFamily=Helvetica;fontSize=11;fontColor=default;edgeStyle=orthogonalEdgeStyle;" parent="1" edge="1">
          <mxGeometry relative="1" as="geometry">
            <mxPoint x="409" y="3522.5" as="targetPoint" />
            <mxPoint x="355" y="3522.5" as="sourcePoint" />
          </mxGeometry>
        </mxCell>
        <mxCell id="auGSVoLlWJl7ejtN8B5e-152" value="1. Запуск" style="text;html=1;align=left;verticalAlign=middle;resizable=0;points=[];autosize=1;strokeColor=none;fillColor=none;fontFamily=Helvetica;fontSize=10;fontColor=default;labelBackgroundColor=default;" parent="1" vertex="1">
          <mxGeometry x="330" y="3490.5" width="70" height="30" as="geometry" />
        </mxCell>
        <mxCell id="auGSVoLlWJl7ejtN8B5e-153" value="" style="endArrow=open;html=1;rounded=0;align=center;verticalAlign=top;endFill=0;labelBackgroundColor=none;endSize=6;strokeColor=default;fontFamily=Helvetica;fontSize=11;fontColor=default;edgeStyle=orthogonalEdgeStyle;" parent="1" edge="1">
          <mxGeometry relative="1" as="geometry">
            <mxPoint x="715" y="3510" as="targetPoint" />
            <mxPoint x="715" y="3460" as="sourcePoint" />
            <Array as="points">
              <mxPoint x="715" y="3480" />
              <mxPoint x="715" y="3480" />
            </Array>
          </mxGeometry>
        </mxCell>
        <mxCell id="auGSVoLlWJl7ejtN8B5e-155" value=":Пользователь" style="rounded=0;whiteSpace=wrap;html=1;strokeWidth=3;" parent="1" vertex="1">
          <mxGeometry x="148" y="3511" width="159" height="41" as="geometry" />
        </mxCell>
        <mxCell id="auGSVoLlWJl7ejtN8B5e-158" value="И1:Интерфейс" style="rounded=0;whiteSpace=wrap;html=1;" parent="1" vertex="1">
          <mxGeometry x="445" y="3501.5" width="120" height="60" as="geometry" />
        </mxCell>
        <mxCell id="auGSVoLlWJl7ejtN8B5e-159" value="" style="endArrow=none;html=1;rounded=0;exitX=1;exitY=0.5;exitDx=0;exitDy=0;" parent="1" source="auGSVoLlWJl7ejtN8B5e-158" edge="1">
          <mxGeometry width="50" height="50" relative="1" as="geometry">
            <mxPoint x="605" y="3566" as="sourcePoint" />
            <mxPoint x="695" y="3532" as="targetPoint" />
          </mxGeometry>
        </mxCell>
        <mxCell id="auGSVoLlWJl7ejtN8B5e-160" value="" style="endArrow=none;html=1;rounded=0;entryX=0.5;entryY=1;entryDx=0;entryDy=0;exitX=0.5;exitY=0;exitDx=0;exitDy=0;" parent="1" edge="1">
          <mxGeometry width="50" height="50" relative="1" as="geometry">
            <mxPoint x="695" y="3638" as="sourcePoint" />
            <mxPoint x="695" y="3450" as="targetPoint" />
          </mxGeometry>
        </mxCell>
        <mxCell id="auGSVoLlWJl7ejtN8B5e-161" value="3.О&lt;span style=&quot;background-color: transparent; color: light-dark(rgb(0, 0, 0), rgb(255, 255, 255));&quot;&gt;бновление графика&lt;/span&gt;" style="text;html=1;align=center;verticalAlign=middle;resizable=0;points=[];autosize=1;strokeColor=none;fillColor=none;fontSize=10;" parent="1" vertex="1">
          <mxGeometry x="709.5" y="3471.5" width="130" height="30" as="geometry" />
        </mxCell>
        <mxCell id="auGSVoLlWJl7ejtN8B5e-162" value="2.Обработка данных" style="text;html=1;align=center;verticalAlign=middle;resizable=0;points=[];autosize=1;strokeColor=none;fillColor=none;fontSize=10;" parent="1" vertex="1">
          <mxGeometry x="565" y="3485" width="120" height="30" as="geometry" />
        </mxCell>
        <mxCell id="auGSVoLlWJl7ejtN8B5e-163" value="4.В&lt;span style=&quot;background-color: transparent; color: light-dark(rgb(0, 0, 0), rgb(255, 255, 255));&quot;&gt;озврат обновленного графика&lt;/span&gt;" style="text;html=1;align=center;verticalAlign=middle;resizable=0;points=[];autosize=1;strokeColor=none;fillColor=none;fontSize=10;" parent="1" vertex="1">
          <mxGeometry x="709.5" y="3578" width="180" height="30" as="geometry" />
        </mxCell>
        <mxCell id="auGSVoLlWJl7ejtN8B5e-164" value="5.Результат&amp;nbsp;" style="text;html=1;align=center;verticalAlign=middle;resizable=0;points=[];autosize=1;strokeColor=none;fillColor=none;fontSize=10;" parent="1" vertex="1">
          <mxGeometry x="325" y="3552" width="80" height="30" as="geometry" />
        </mxCell>
        <mxCell id="auGSVoLlWJl7ejtN8B5e-165" value="" style="endArrow=open;html=1;rounded=0;align=center;verticalAlign=top;endFill=0;labelBackgroundColor=none;endSize=6;strokeColor=default;fontFamily=Helvetica;fontSize=11;fontColor=default;edgeStyle=orthogonalEdgeStyle;" parent="1" edge="1">
          <mxGeometry relative="1" as="geometry">
            <mxPoint x="649" y="3516" as="targetPoint" />
            <mxPoint x="595" y="3516" as="sourcePoint" />
          </mxGeometry>
        </mxCell>
        <mxCell id="auGSVoLlWJl7ejtN8B5e-166" value="" style="endArrow=open;html=1;rounded=0;align=center;verticalAlign=top;endFill=0;labelBackgroundColor=none;endSize=6;strokeColor=default;fontFamily=Helvetica;fontSize=11;fontColor=default;edgeStyle=orthogonalEdgeStyle;" parent="1" edge="1">
          <mxGeometry relative="1" as="geometry">
            <mxPoint x="715" y="3567" as="targetPoint" />
            <mxPoint x="715" y="3617" as="sourcePoint" />
            <Array as="points">
              <mxPoint x="715" y="3617" />
              <mxPoint x="715" y="3617" />
            </Array>
          </mxGeometry>
        </mxCell>
        <mxCell id="auGSVoLlWJl7ejtN8B5e-167" value="" style="endArrow=open;html=1;rounded=0;align=center;verticalAlign=top;endFill=0;labelBackgroundColor=none;endSize=6;strokeColor=default;fontFamily=Helvetica;fontSize=11;fontColor=default;edgeStyle=orthogonalEdgeStyle;" parent="1" edge="1">
          <mxGeometry relative="1" as="geometry">
            <mxPoint x="355" y="3551" as="targetPoint" />
            <mxPoint x="415" y="3551" as="sourcePoint" />
            <Array as="points">
              <mxPoint x="410" y="3551" />
            </Array>
          </mxGeometry>
        </mxCell>
        <mxCell id="auGSVoLlWJl7ejtN8B5e-168" value="График" style="swimlane;fontStyle=2;align=left;verticalAlign=top;childLayout=stackLayout;horizontal=1;startSize=26;horizontalStack=0;resizeParent=1;resizeLast=0;collapsible=1;marginBottom=0;rounded=0;shadow=0;strokeWidth=1;" parent="1" vertex="1">
          <mxGeometry x="644.5" y="3630" width="110" height="88" as="geometry">
            <mxRectangle x="220" y="120" width="160" height="26" as="alternateBounds" />
          </mxGeometry>
        </mxCell>
        <mxCell id="auGSVoLlWJl7ejtN8B5e-169" value="graphCanvas" style="text;align=left;verticalAlign=top;spacingLeft=4;spacingRight=4;overflow=hidden;rotatable=0;points=[[0,0.5],[1,0.5]];portConstraint=eastwest;" parent="auGSVoLlWJl7ejtN8B5e-168" vertex="1">
          <mxGeometry y="26" width="110" height="24" as="geometry" />
        </mxCell>
        <mxCell id="auGSVoLlWJl7ejtN8B5e-170" value="" style="line;html=1;strokeWidth=1;align=left;verticalAlign=middle;spacingTop=-1;spacingLeft=3;spacingRight=3;rotatable=0;labelPosition=right;points=[];portConstraint=eastwest;dashed=1;" parent="auGSVoLlWJl7ejtN8B5e-168" vertex="1">
          <mxGeometry y="50" width="110" height="8" as="geometry" />
        </mxCell>
        <mxCell id="auGSVoLlWJl7ejtN8B5e-171" value="DrawChart" style="text;html=1;align=center;verticalAlign=middle;resizable=0;points=[];autosize=1;strokeColor=none;fillColor=none;" parent="auGSVoLlWJl7ejtN8B5e-168" vertex="1">
          <mxGeometry y="58" width="110" height="30" as="geometry" />
        </mxCell>
        <mxCell id="auGSVoLlWJl7ejtN8B5e-172" value="&lt;p style=&quot;margin: 4px 0px 0px;&quot;&gt;&lt;i style=&quot;&quot;&gt;&amp;nbsp;&lt;/i&gt;&lt;span style=&quot;background-color: transparent;&quot;&gt;&lt;i&gt;PressureGraph:&lt;/i&gt;&lt;/span&gt;&lt;/p&gt;&lt;p style=&quot;margin:0px;margin-left:4px;&quot;&gt;- canvas: Canvas&amp;nbsp; &amp;nbsp;&amp;nbsp;&lt;/p&gt;&lt;p style=&quot;margin:0px;margin-left:4px;&quot;&gt;- pressureValues: List():double&amp;gt;&lt;/p&gt;&lt;p style=&quot;margin:0px;margin-left:4px;&quot;&gt;- pressureData: IPressureData&amp;nbsp;&lt;/p&gt;&lt;hr style=&quot;border-style:solid;&quot; size=&quot;1&quot;&gt;&lt;p style=&quot;margin:0px;margin-left:4px;&quot;&gt;+ DrawAxes()&lt;/p&gt;&lt;p style=&quot;margin:0px;margin-left:4px;&quot;&gt;+ DrawCanvas()&amp;nbsp;&amp;nbsp;&lt;/p&gt;&lt;p style=&quot;margin:0px;margin-left:4px;&quot;&gt;&lt;br&gt;&lt;/p&gt;" style="verticalAlign=top;align=left;overflow=fill;html=1;whiteSpace=wrap;" parent="1" vertex="1">
          <mxGeometry x="600" y="3350" width="195" height="100" as="geometry" />
        </mxCell>
        <mxCell id="auGSVoLlWJl7ejtN8B5e-173" value="" style="endArrow=none;html=1;rounded=0;exitX=0;exitY=0.2;exitDx=0;exitDy=0;exitPerimeter=0;entryX=1;entryY=0.2;entryDx=0;entryDy=0;entryPerimeter=0;" parent="1" source="auGSVoLlWJl7ejtN8B5e-172" target="auGSVoLlWJl7ejtN8B5e-172" edge="1">
          <mxGeometry width="50" height="50" relative="1" as="geometry">
            <mxPoint x="1200" y="3646" as="sourcePoint" />
            <mxPoint x="1250" y="3596" as="targetPoint" />
          </mxGeometry>
        </mxCell>
        <mxCell id="auGSVoLlWJl7ejtN8B5e-174" value="&lt;font style=&quot;font-size: 14px;&quot;&gt;Рабочая станция пользователя&lt;/font&gt;" style="verticalAlign=top;align=left;shape=cube;size=10;direction=south;fontStyle=4;html=1;boundedLbl=1;spacingLeft=5;whiteSpace=wrap;" parent="1" vertex="1">
          <mxGeometry x="-100" y="3882" width="250" height="125" as="geometry" />
        </mxCell>
        <mxCell id="auGSVoLlWJl7ejtN8B5e-175" value="&lt;font style=&quot;font-size: 14px;&quot;&gt;Модуль работы с исполняемым файлом&lt;/font&gt;" style="html=1;dropTarget=0;whiteSpace=wrap;align=left;" parent="1" vertex="1">
          <mxGeometry x="-60" y="3922" width="180" height="75" as="geometry" />
        </mxCell>
        <mxCell id="auGSVoLlWJl7ejtN8B5e-176" value="" style="shape=module;jettyWidth=8;jettyHeight=4;" parent="auGSVoLlWJl7ejtN8B5e-175" vertex="1">
          <mxGeometry x="1" width="20" height="20" relative="1" as="geometry">
            <mxPoint x="-27" y="7" as="offset" />
          </mxGeometry>
        </mxCell>
        <mxCell id="auGSVoLlWJl7ejtN8B5e-177" value="&lt;font style=&quot;font-size: 14px;&quot;&gt;Устройство: ПЭВМ&lt;/font&gt;" style="verticalAlign=top;align=left;shape=cube;size=10;direction=south;fontStyle=4;html=1;boundedLbl=1;spacingLeft=5;whiteSpace=wrap;" parent="1" vertex="1">
          <mxGeometry x="185" y="3882" width="220" height="120" as="geometry" />
        </mxCell>
        <mxCell id="auGSVoLlWJl7ejtN8B5e-178" value="+ ОС: Windows/Linux/Mac&lt;div&gt;+Visual Studio: обязательно&lt;br&gt;&lt;div&gt;-Интернет: 70мб/сек&lt;/div&gt;&lt;div&gt;- Лицензия: необязательна&lt;/div&gt;&lt;div&gt;&lt;br&gt;&lt;/div&gt;&lt;/div&gt;" style="rounded=0;whiteSpace=wrap;html=1;align=left;verticalAlign=top;" parent="1" vertex="1">
          <mxGeometry x="200" y="3925" width="190" height="65" as="geometry" />
        </mxCell>
        <mxCell id="auGSVoLlWJl7ejtN8B5e-179" style="edgeStyle=orthogonalEdgeStyle;rounded=0;orthogonalLoop=1;jettySize=auto;html=1;entryX=0.519;entryY=1.001;entryDx=0;entryDy=0;entryPerimeter=0;endArrow=none;endFill=0;" parent="1" source="auGSVoLlWJl7ejtN8B5e-174" target="auGSVoLlWJl7ejtN8B5e-177" edge="1">
          <mxGeometry relative="1" as="geometry" />
        </mxCell>
        <mxCell id="auGSVoLlWJl7ejtN8B5e-187" style="edgeStyle=orthogonalEdgeStyle;rounded=0;orthogonalLoop=1;jettySize=auto;html=1;entryX=0;entryY=0;entryDx=55;entryDy=240;entryPerimeter=0;endArrow=none;endFill=0;exitX=0;exitY=0;exitDx=80;exitDy=0;exitPerimeter=0;" parent="1" edge="1">
          <mxGeometry relative="1" as="geometry">
            <mxPoint x="404.5" y="3940" as="sourcePoint" />
            <mxPoint x="499.5" y="3940" as="targetPoint" />
          </mxGeometry>
        </mxCell>
        <mxCell id="auGSVoLlWJl7ejtN8B5e-188" value="&lt;span style=&quot;font-size: 14px;&quot;&gt;Локальный сервер&lt;/span&gt;" style="verticalAlign=top;align=left;shape=cube;size=10;direction=south;fontStyle=4;html=1;boundedLbl=1;spacingLeft=5;whiteSpace=wrap;" parent="1" vertex="1">
          <mxGeometry x="499.5" y="3840" width="280" height="190" as="geometry" />
        </mxCell>
        <mxCell id="auGSVoLlWJl7ejtN8B5e-189" value="&lt;span style=&quot;font-size: 14px;&quot;&gt;Файл SLN.&lt;/span&gt;" style="html=1;dropTarget=0;whiteSpace=wrap;align=left;" parent="1" vertex="1">
          <mxGeometry x="499.5" y="3882" width="250" height="58" as="geometry" />
        </mxCell>
        <mxCell id="auGSVoLlWJl7ejtN8B5e-190" value="" style="shape=module;jettyWidth=8;jettyHeight=4;" parent="auGSVoLlWJl7ejtN8B5e-189" vertex="1">
          <mxGeometry x="1" width="31" height="40" relative="1" as="geometry">
            <mxPoint x="-38" y="7" as="offset" />
          </mxGeometry>
        </mxCell>
        <mxCell id="auGSVoLlWJl7ejtN8B5e-191" value="&lt;span style=&quot;font-size: 14px;&quot;&gt;.NET FrameWork&lt;/span&gt;" style="html=1;dropTarget=0;whiteSpace=wrap;align=left;" parent="1" vertex="1">
          <mxGeometry x="499.5" y="3940" width="250" height="57" as="geometry" />
        </mxCell>
        <mxCell id="auGSVoLlWJl7ejtN8B5e-192" value="" style="shape=module;jettyWidth=8;jettyHeight=4;" parent="auGSVoLlWJl7ejtN8B5e-191" vertex="1">
          <mxGeometry x="1" width="31" height="40" relative="1" as="geometry">
            <mxPoint x="-38" y="7" as="offset" />
          </mxGeometry>
        </mxCell>
        <mxCell id="auGSVoLlWJl7ejtN8B5e-205" style="edgeStyle=orthogonalEdgeStyle;rounded=0;orthogonalLoop=1;jettySize=auto;html=1;exitX=0.5;exitY=1;exitDx=0;exitDy=0;entryX=0.5;entryY=0;entryDx=0;entryDy=0;" parent="1" source="auGSVoLlWJl7ejtN8B5e-200" target="auGSVoLlWJl7ejtN8B5e-202" edge="1">
          <mxGeometry relative="1" as="geometry" />
        </mxCell>
        <mxCell id="auGSVoLlWJl7ejtN8B5e-200" value="Начало" style="ellipse;whiteSpace=wrap;html=1;" parent="1" vertex="1">
          <mxGeometry x="-102.65" y="-643" width="105" height="70" as="geometry" />
        </mxCell>
        <mxCell id="auGSVoLlWJl7ejtN8B5e-201" value="Отобразить график на Canvas" style="rounded=0;whiteSpace=wrap;html=1;" parent="1" vertex="1">
          <mxGeometry x="-113" y="-453" width="120" height="60" as="geometry" />
        </mxCell>
        <mxCell id="auGSVoLlWJl7ejtN8B5e-206" style="edgeStyle=orthogonalEdgeStyle;rounded=0;orthogonalLoop=1;jettySize=auto;html=1;exitX=0.5;exitY=1;exitDx=0;exitDy=0;entryX=0.5;entryY=0;entryDx=0;entryDy=0;" parent="1" source="auGSVoLlWJl7ejtN8B5e-202" target="auGSVoLlWJl7ejtN8B5e-201" edge="1">
          <mxGeometry relative="1" as="geometry" />
        </mxCell>
        <mxCell id="auGSVoLlWJl7ejtN8B5e-202" value="Получить данные давления" style="rounded=0;whiteSpace=wrap;html=1;" parent="1" vertex="1">
          <mxGeometry x="-110.15" y="-543" width="120" height="60" as="geometry" />
        </mxCell>
        <mxCell id="auGSVoLlWJl7ejtN8B5e-203" value="Конец" style="ellipse;whiteSpace=wrap;html=1;" parent="1" vertex="1">
          <mxGeometry x="-105.65" y="-363" width="105" height="70" as="geometry" />
        </mxCell>
        <mxCell id="auGSVoLlWJl7ejtN8B5e-204" style="edgeStyle=orthogonalEdgeStyle;rounded=0;orthogonalLoop=1;jettySize=auto;html=1;exitX=0.5;exitY=1;exitDx=0;exitDy=0;" parent="1" source="auGSVoLlWJl7ejtN8B5e-201" target="auGSVoLlWJl7ejtN8B5e-201" edge="1">
          <mxGeometry relative="1" as="geometry" />
        </mxCell>
        <mxCell id="auGSVoLlWJl7ejtN8B5e-207" style="edgeStyle=orthogonalEdgeStyle;rounded=0;orthogonalLoop=1;jettySize=auto;html=1;exitX=0.5;exitY=1;exitDx=0;exitDy=0;entryX=0.465;entryY=0.01;entryDx=0;entryDy=0;entryPerimeter=0;" parent="1" source="auGSVoLlWJl7ejtN8B5e-201" target="auGSVoLlWJl7ejtN8B5e-203" edge="1">
          <mxGeometry relative="1" as="geometry" />
        </mxCell>
        <mxCell id="auGSVoLlWJl7ejtN8B5e-208" value="PressureCraph" style="text;html=1;align=center;verticalAlign=middle;resizable=0;points=[];autosize=1;strokeColor=none;fillColor=none;" parent="1" vertex="1">
          <mxGeometry x="-102.65" y="-683" width="100" height="30" as="geometry" />
        </mxCell>
        <mxCell id="auGSVoLlWJl7ejtN8B5e-209" style="edgeStyle=orthogonalEdgeStyle;rounded=0;orthogonalLoop=1;jettySize=auto;html=1;exitX=0.5;exitY=1;exitDx=0;exitDy=0;entryX=0.5;entryY=0;entryDx=0;entryDy=0;" parent="1" source="auGSVoLlWJl7ejtN8B5e-210" edge="1">
          <mxGeometry relative="1" as="geometry">
            <mxPoint x="264.35" y="-543" as="targetPoint" />
          </mxGeometry>
        </mxCell>
        <mxCell id="auGSVoLlWJl7ejtN8B5e-210" value="Начало" style="ellipse;whiteSpace=wrap;html=1;" parent="1" vertex="1">
          <mxGeometry x="211.85" y="-643" width="105" height="70" as="geometry" />
        </mxCell>
        <mxCell id="auGSVoLlWJl7ejtN8B5e-220" style="edgeStyle=orthogonalEdgeStyle;rounded=0;orthogonalLoop=1;jettySize=auto;html=1;exitX=0.5;exitY=1;exitDx=0;exitDy=0;entryX=0.5;entryY=0;entryDx=0;entryDy=0;" parent="1" source="auGSVoLlWJl7ejtN8B5e-211" target="auGSVoLlWJl7ejtN8B5e-218" edge="1">
          <mxGeometry relative="1" as="geometry" />
        </mxCell>
        <mxCell id="auGSVoLlWJl7ejtN8B5e-211" value="Сгененировать данные давления" style="rounded=0;whiteSpace=wrap;html=1;" parent="1" vertex="1">
          <mxGeometry x="196.85" y="-453" width="120" height="60" as="geometry" />
        </mxCell>
        <mxCell id="auGSVoLlWJl7ejtN8B5e-212" style="edgeStyle=orthogonalEdgeStyle;rounded=0;orthogonalLoop=1;jettySize=auto;html=1;exitX=0.5;exitY=1;exitDx=0;exitDy=0;entryX=0.5;entryY=0;entryDx=0;entryDy=0;" parent="1" target="auGSVoLlWJl7ejtN8B5e-211" edge="1">
          <mxGeometry relative="1" as="geometry">
            <mxPoint x="264.35" y="-483" as="sourcePoint" />
          </mxGeometry>
        </mxCell>
        <mxCell id="auGSVoLlWJl7ejtN8B5e-221" style="edgeStyle=orthogonalEdgeStyle;rounded=0;orthogonalLoop=1;jettySize=auto;html=1;entryX=0.5;entryY=1;entryDx=0;entryDy=0;" parent="1" source="auGSVoLlWJl7ejtN8B5e-214" target="auGSVoLlWJl7ejtN8B5e-218" edge="1">
          <mxGeometry relative="1" as="geometry" />
        </mxCell>
        <mxCell id="auGSVoLlWJl7ejtN8B5e-214" value="Конец" style="ellipse;whiteSpace=wrap;html=1;" parent="1" vertex="1">
          <mxGeometry x="204.35" y="-273" width="105" height="70" as="geometry" />
        </mxCell>
        <mxCell id="auGSVoLlWJl7ejtN8B5e-215" style="edgeStyle=orthogonalEdgeStyle;rounded=0;orthogonalLoop=1;jettySize=auto;html=1;exitX=0.5;exitY=1;exitDx=0;exitDy=0;" parent="1" source="auGSVoLlWJl7ejtN8B5e-211" target="auGSVoLlWJl7ejtN8B5e-211" edge="1">
          <mxGeometry relative="1" as="geometry" />
        </mxCell>
        <mxCell id="auGSVoLlWJl7ejtN8B5e-217" value="Параметры генерации" style="shape=parallelogram;perimeter=parallelogramPerimeter;whiteSpace=wrap;html=1;fixedSize=1;" parent="1" vertex="1">
          <mxGeometry x="202.85" y="-543" width="120" height="60" as="geometry" />
        </mxCell>
        <mxCell id="auGSVoLlWJl7ejtN8B5e-218" value="Вернуть сгенерированные данные" style="rounded=0;whiteSpace=wrap;html=1;" parent="1" vertex="1">
          <mxGeometry x="196.85" y="-363" width="120" height="60" as="geometry" />
        </mxCell>
        <mxCell id="auGSVoLlWJl7ejtN8B5e-222" value="PressureData" style="text;html=1;align=center;verticalAlign=middle;resizable=0;points=[];autosize=1;strokeColor=none;fillColor=none;" parent="1" vertex="1">
          <mxGeometry x="212.85" y="-683" width="100" height="30" as="geometry" />
        </mxCell>
        <mxCell id="auGSVoLlWJl7ejtN8B5e-223" style="edgeStyle=orthogonalEdgeStyle;rounded=0;orthogonalLoop=1;jettySize=auto;html=1;exitX=0.5;exitY=1;exitDx=0;exitDy=0;entryX=0.5;entryY=0;entryDx=0;entryDy=0;" parent="1" source="auGSVoLlWJl7ejtN8B5e-224" target="auGSVoLlWJl7ejtN8B5e-227" edge="1">
          <mxGeometry relative="1" as="geometry" />
        </mxCell>
        <mxCell id="auGSVoLlWJl7ejtN8B5e-224" value="Начало" style="ellipse;whiteSpace=wrap;html=1;" parent="1" vertex="1">
          <mxGeometry x="504.70000000000005" y="-633" width="105" height="70" as="geometry" />
        </mxCell>
        <mxCell id="auGSVoLlWJl7ejtN8B5e-225" value="Отобразить график на экране" style="rounded=0;whiteSpace=wrap;html=1;" parent="1" vertex="1">
          <mxGeometry x="494.35" y="-443" width="120" height="60" as="geometry" />
        </mxCell>
        <mxCell id="auGSVoLlWJl7ejtN8B5e-226" style="edgeStyle=orthogonalEdgeStyle;rounded=0;orthogonalLoop=1;jettySize=auto;html=1;exitX=0.5;exitY=1;exitDx=0;exitDy=0;entryX=0.5;entryY=0;entryDx=0;entryDy=0;" parent="1" source="auGSVoLlWJl7ejtN8B5e-227" target="auGSVoLlWJl7ejtN8B5e-225" edge="1">
          <mxGeometry relative="1" as="geometry" />
        </mxCell>
        <mxCell id="auGSVoLlWJl7ejtN8B5e-227" value="Получить данные для отрисовки графика" style="rounded=0;whiteSpace=wrap;html=1;" parent="1" vertex="1">
          <mxGeometry x="497.20000000000005" y="-533" width="120" height="60" as="geometry" />
        </mxCell>
        <mxCell id="auGSVoLlWJl7ejtN8B5e-228" value="Конец" style="ellipse;whiteSpace=wrap;html=1;" parent="1" vertex="1">
          <mxGeometry x="501.70000000000005" y="-353" width="105" height="70" as="geometry" />
        </mxCell>
        <mxCell id="auGSVoLlWJl7ejtN8B5e-229" style="edgeStyle=orthogonalEdgeStyle;rounded=0;orthogonalLoop=1;jettySize=auto;html=1;exitX=0.5;exitY=1;exitDx=0;exitDy=0;" parent="1" source="auGSVoLlWJl7ejtN8B5e-225" target="auGSVoLlWJl7ejtN8B5e-225" edge="1">
          <mxGeometry relative="1" as="geometry" />
        </mxCell>
        <mxCell id="auGSVoLlWJl7ejtN8B5e-230" style="edgeStyle=orthogonalEdgeStyle;rounded=0;orthogonalLoop=1;jettySize=auto;html=1;exitX=0.5;exitY=1;exitDx=0;exitDy=0;entryX=0.465;entryY=0.01;entryDx=0;entryDy=0;entryPerimeter=0;" parent="1" source="auGSVoLlWJl7ejtN8B5e-225" target="auGSVoLlWJl7ejtN8B5e-228" edge="1">
          <mxGeometry relative="1" as="geometry" />
        </mxCell>
        <mxCell id="auGSVoLlWJl7ejtN8B5e-231" value="Canvas" style="text;html=1;align=center;verticalAlign=middle;resizable=0;points=[];autosize=1;strokeColor=none;fillColor=none;" parent="1" vertex="1">
          <mxGeometry x="524.7" y="-673" width="60" height="30" as="geometry" />
        </mxCell>
        <mxCell id="WylnOcQBi4sHS8un0-Cp-4" value="" style="group" parent="1" vertex="1" connectable="0">
          <mxGeometry x="160.35000000000002" y="-26" width="369" height="420" as="geometry" />
        </mxCell>
        <mxCell id="WylnOcQBi4sHS8un0-Cp-2" value="" style="rounded=0;whiteSpace=wrap;html=1;" parent="WylnOcQBi4sHS8un0-Cp-4" vertex="1">
          <mxGeometry width="369" height="420" as="geometry" />
        </mxCell>
        <mxCell id="WylnOcQBi4sHS8un0-Cp-3" value="" style="endArrow=none;html=1;rounded=0;exitX=0.006;exitY=0.184;exitDx=0;exitDy=0;exitPerimeter=0;entryX=1.004;entryY=0.095;entryDx=0;entryDy=0;entryPerimeter=0;" parent="WylnOcQBi4sHS8un0-Cp-4" target="WylnOcQBi4sHS8un0-Cp-2" edge="1">
          <mxGeometry width="50" height="50" relative="1" as="geometry">
            <mxPoint x="1.2328826979474523" y="37.500000000000085" as="sourcePoint" />
            <mxPoint x="274.2533826979472" y="38.92500000000015" as="targetPoint" />
          </mxGeometry>
        </mxCell>
        <mxCell id="WylnOcQBi4sHS8un0-Cp-5" value="Программа" style="text;html=1;align=center;verticalAlign=middle;resizable=0;points=[];autosize=1;strokeColor=none;fillColor=none;fontSize=17;" parent="WylnOcQBi4sHS8un0-Cp-4" vertex="1">
          <mxGeometry x="135.6504255319149" y="6" width="110" height="30" as="geometry" />
        </mxCell>
        <mxCell id="auGSVoLlWJl7ejtN8B5e-2" value="Запуск программы" style="ellipse;whiteSpace=wrap;html=1;" parent="WylnOcQBi4sHS8un0-Cp-4" vertex="1">
          <mxGeometry x="29.999999999999993" y="60" width="101.38" height="65" as="geometry" />
        </mxCell>
        <mxCell id="WylnOcQBi4sHS8un0-Cp-9" value="Запуск мониторинга давления" style="ellipse;whiteSpace=wrap;html=1;" parent="WylnOcQBi4sHS8un0-Cp-4" vertex="1">
          <mxGeometry x="162.65" y="142" width="101.38" height="65" as="geometry" />
        </mxCell>
        <mxCell id="WylnOcQBi4sHS8un0-Cp-19" value="Просмотр текущих показаний" style="ellipse;whiteSpace=wrap;html=1;" parent="WylnOcQBi4sHS8un0-Cp-4" vertex="1">
          <mxGeometry x="27.65" y="214" width="101.38" height="65" as="geometry" />
        </mxCell>
        <mxCell id="WylnOcQBi4sHS8un0-Cp-21" value="" style="endArrow=open;html=1;rounded=0;entryX=0.391;entryY=1.003;entryDx=0;entryDy=0;entryPerimeter=0;exitX=0.978;exitY=0.358;exitDx=0;exitDy=0;exitPerimeter=0;dashed=1;endFill=0;" parent="WylnOcQBi4sHS8un0-Cp-4" source="WylnOcQBi4sHS8un0-Cp-19" target="WylnOcQBi4sHS8un0-Cp-9" edge="1">
          <mxGeometry width="50" height="50" relative="1" as="geometry">
            <mxPoint x="55.69" y="265" as="sourcePoint" />
            <mxPoint x="105.69" y="215" as="targetPoint" />
          </mxGeometry>
        </mxCell>
        <mxCell id="WylnOcQBi4sHS8un0-Cp-22" value="вкл." style="text;html=1;align=center;verticalAlign=middle;resizable=0;points=[];autosize=1;strokeColor=none;fillColor=none;" parent="WylnOcQBi4sHS8un0-Cp-4" vertex="1">
          <mxGeometry x="123.65000000000003" y="201" width="50" height="30" as="geometry" />
        </mxCell>
        <mxCell id="YuwhPS7F8WWYA5LFU3C--1" value="Очистка графика" style="ellipse;whiteSpace=wrap;html=1;" vertex="1" parent="WylnOcQBi4sHS8un0-Cp-4">
          <mxGeometry x="27.649999999999977" y="305" width="101.38" height="65" as="geometry" />
        </mxCell>
        <mxCell id="YuwhPS7F8WWYA5LFU3C--2" value="" style="endArrow=open;html=1;rounded=0;exitX=0.671;exitY=0.985;exitDx=0;exitDy=0;exitPerimeter=0;dashed=1;endFill=0;" edge="1" parent="WylnOcQBi4sHS8un0-Cp-4" source="WylnOcQBi4sHS8un0-Cp-9" target="YuwhPS7F8WWYA5LFU3C--1">
          <mxGeometry width="50" height="50" relative="1" as="geometry">
            <mxPoint x="447.65" y="279" as="sourcePoint" />
            <mxPoint x="522.65" y="249" as="targetPoint" />
          </mxGeometry>
        </mxCell>
        <mxCell id="YuwhPS7F8WWYA5LFU3C--3" value="расш." style="text;html=1;align=center;verticalAlign=middle;resizable=0;points=[];autosize=1;strokeColor=none;fillColor=none;fontSize=10;" vertex="1" parent="WylnOcQBi4sHS8un0-Cp-4">
          <mxGeometry x="156.64999999999998" y="260" width="45" height="24" as="geometry" />
        </mxCell>
        <mxCell id="WylnOcQBi4sHS8un0-Cp-7" value="" style="endArrow=none;html=1;rounded=0;entryX=0;entryY=0.5;entryDx=0;entryDy=0;exitX=0.5;exitY=0.5;exitDx=0;exitDy=0;exitPerimeter=0;" parent="1" source="auGSVoLlWJl7ejtN8B5e-1" target="auGSVoLlWJl7ejtN8B5e-2" edge="1">
          <mxGeometry width="50" height="50" relative="1" as="geometry">
            <mxPoint x="90.35000000000002" y="79" as="sourcePoint" />
            <mxPoint x="140.35000000000002" y="29" as="targetPoint" />
          </mxGeometry>
        </mxCell>
        <mxCell id="WylnOcQBi4sHS8un0-Cp-10" value="" style="endArrow=none;html=1;rounded=0;exitX=0.5;exitY=0.5;exitDx=0;exitDy=0;exitPerimeter=0;entryX=0;entryY=0.5;entryDx=0;entryDy=0;" parent="1" source="auGSVoLlWJl7ejtN8B5e-1" target="WylnOcQBi4sHS8un0-Cp-9" edge="1">
          <mxGeometry width="50" height="50" relative="1" as="geometry">
            <mxPoint x="80.35000000000002" y="289" as="sourcePoint" />
            <mxPoint x="130.35000000000002" y="239" as="targetPoint" />
          </mxGeometry>
        </mxCell>
        <mxCell id="WylnOcQBi4sHS8un0-Cp-20" value="" style="endArrow=none;html=1;rounded=0;exitX=0.5;exitY=0.5;exitDx=0;exitDy=0;exitPerimeter=0;entryX=0;entryY=0.5;entryDx=0;entryDy=0;" parent="1" source="auGSVoLlWJl7ejtN8B5e-1" target="WylnOcQBi4sHS8un0-Cp-19" edge="1">
          <mxGeometry width="50" height="50" relative="1" as="geometry">
            <mxPoint x="40.35000000000002" y="319" as="sourcePoint" />
            <mxPoint x="90.35000000000002" y="269" as="targetPoint" />
          </mxGeometry>
        </mxCell>
        <mxCell id="JMAPB1L8C8AvU4RpnxtF-1" value="" style="endArrow=open;html=1;rounded=0;entryX=-0.25;entryY=0.684;entryDx=0;entryDy=0;entryPerimeter=0;endFill=0;" parent="1" edge="1">
          <mxGeometry width="50" height="50" relative="1" as="geometry">
            <mxPoint x="139.6" y="870.004" as="sourcePoint" />
            <mxPoint x="530.1" y="870.004" as="targetPoint" />
          </mxGeometry>
        </mxCell>
        <mxCell id="JMAPB1L8C8AvU4RpnxtF-2" value="Просмотр графика" style="text;html=1;align=center;verticalAlign=middle;resizable=0;points=[];autosize=1;strokeColor=none;fillColor=none;" parent="1" vertex="1">
          <mxGeometry x="268" y="840" width="130" height="30" as="geometry" />
        </mxCell>
        <mxCell id="YuwhPS7F8WWYA5LFU3C--4" value="Отображение графика" style="text;html=1;align=center;verticalAlign=middle;resizable=0;points=[];autosize=1;strokeColor=none;fillColor=none;" vertex="1" parent="1">
          <mxGeometry x="258" y="800" width="150" height="30" as="geometry" />
        </mxCell>
        <mxCell id="YuwhPS7F8WWYA5LFU3C--5" style="edgeStyle=orthogonalEdgeStyle;rounded=0;orthogonalLoop=1;jettySize=auto;html=1;curved=0;endArrow=open;endFill=0;dashed=1;entryX=1.25;entryY=0.768;entryDx=0;entryDy=0;entryPerimeter=0;" edge="1" parent="1">
          <mxGeometry relative="1" as="geometry">
            <mxPoint x="533" y="830" as="sourcePoint" />
            <mxPoint x="143" y="830.3800000000001" as="targetPoint" />
            <Array as="points">
              <mxPoint x="366.5" y="829.46" />
            </Array>
          </mxGeometry>
        </mxCell>
        <mxCell id="YuwhPS7F8WWYA5LFU3C--6" style="edgeStyle=orthogonalEdgeStyle;rounded=0;orthogonalLoop=1;jettySize=auto;html=1;curved=0;exitX=1;exitY=0;exitDx=0;exitDy=5;exitPerimeter=0;" edge="1" parent="1">
          <mxGeometry relative="1" as="geometry">
            <mxPoint x="142.25" y="740" as="sourcePoint" />
            <mxPoint x="532.75" y="740" as="targetPoint" />
            <Array as="points">
              <mxPoint x="532.75" y="740" />
            </Array>
          </mxGeometry>
        </mxCell>
        <mxCell id="YuwhPS7F8WWYA5LFU3C--7" value="Нажал кнопку Старт" style="text;html=1;align=center;verticalAlign=middle;resizable=0;points=[];autosize=1;strokeColor=none;fillColor=none;" vertex="1" parent="1">
          <mxGeometry x="260.15" y="720" width="140" height="30" as="geometry" />
        </mxCell>
      </root>
    </mxGraphModel>
  </diagram>
  <diagram id="RKp5ZZs2fgsVZH8T2g4l" name="Модель С4">
    <mxGraphModel dx="2068" dy="849" grid="0" gridSize="10" guides="1" tooltips="1" connect="1" arrows="1" fold="1" page="1" pageScale="1" pageWidth="1169" pageHeight="827" math="0" shadow="0">
      <root>
        <mxCell id="0" />
        <mxCell id="1" parent="0" />
        <mxCell id="CHBCikpZAWP_d5KgYGRc-1" value="&lt;font style=&quot;font-size: 24px;&quot;&gt;Модель С4&lt;/font&gt;" style="text;html=1;align=center;verticalAlign=middle;resizable=0;points=[];autosize=1;strokeColor=none;fillColor=none;" vertex="1" parent="1">
          <mxGeometry x="490" y="60" width="150" height="40" as="geometry" />
        </mxCell>
        <object placeholders="1" c4Name="Разработчик" c4Type="Администратор" c4Description="Работа с приложением" label="&lt;font style=&quot;font-size: 16px&quot;&gt;&lt;b&gt;%c4Name%&lt;/b&gt;&lt;/font&gt;&lt;div&gt;[%c4Type%]&lt;/div&gt;&lt;br&gt;&lt;div&gt;&lt;font style=&quot;font-size: 11px&quot;&gt;&lt;font color=&quot;#cccccc&quot;&gt;%c4Description%&lt;/font&gt;&lt;/div&gt;" id="CHBCikpZAWP_d5KgYGRc-3">
          <mxCell style="html=1;fontSize=11;dashed=0;whiteSpace=wrap;fillColor=#083F75;strokeColor=#06315C;fontColor=#ffffff;shape=mxgraph.c4.person2;align=center;metaEdit=1;points=[[0.5,0,0],[1,0.5,0],[1,0.75,0],[0.75,1,0],[0.5,1,0],[0.25,1,0],[0,0.75,0],[0,0.5,0]];resizable=0;" vertex="1" parent="1">
            <mxGeometry x="340" y="160" width="200" height="180" as="geometry" />
          </mxCell>
        </object>
        <mxCell id="CHBCikpZAWP_d5KgYGRc-4" style="edgeStyle=orthogonalEdgeStyle;rounded=0;orthogonalLoop=1;jettySize=auto;html=1;exitX=0.5;exitY=1;exitDx=0;exitDy=0;exitPerimeter=0;" edge="1" parent="1" source="CHBCikpZAWP_d5KgYGRc-5" target="CHBCikpZAWP_d5KgYGRc-6">
          <mxGeometry relative="1" as="geometry" />
        </mxCell>
        <object placeholders="1" c4Name="Пользователь" c4Type="Пользователь" c4Description="Работает с интерфейсом программы" label="&lt;font style=&quot;font-size: 16px&quot;&gt;&lt;b&gt;%c4Name%&lt;/b&gt;&lt;/font&gt;&lt;div&gt;[%c4Type%]&lt;/div&gt;&lt;br&gt;&lt;div&gt;&lt;font style=&quot;font-size: 11px&quot;&gt;&lt;font color=&quot;#cccccc&quot;&gt;%c4Description%&lt;/font&gt;&lt;/div&gt;" id="CHBCikpZAWP_d5KgYGRc-5">
          <mxCell style="html=1;fontSize=11;dashed=0;whiteSpace=wrap;fillColor=#083F75;strokeColor=#06315C;fontColor=#ffffff;shape=mxgraph.c4.person2;align=center;metaEdit=1;points=[[0.5,0,0],[1,0.5,0],[1,0.75,0],[0.75,1,0],[0.5,1,0],[0.25,1,0],[0,0.75,0],[0,0.5,0]];resizable=0;" vertex="1" parent="1">
            <mxGeometry x="610" y="160" width="200" height="180" as="geometry" />
          </mxCell>
        </object>
        <object placeholders="1" c4Name="График давления в Туле" c4Type="Software System" c4Description="Обеспечивает работу ИС" label="&lt;font style=&quot;font-size: 16px&quot;&gt;&lt;b&gt;%c4Name%&lt;/b&gt;&lt;/font&gt;&lt;div&gt;[%c4Type%]&lt;/div&gt;&lt;br&gt;&lt;div&gt;&lt;font style=&quot;font-size: 11px&quot;&gt;&lt;font color=&quot;#cccccc&quot;&gt;%c4Description%&lt;/font&gt;&lt;/div&gt;" link="data:page/id,mgFbFwKNr9H-GuUDYJZP" id="CHBCikpZAWP_d5KgYGRc-6">
          <mxCell style="rounded=1;whiteSpace=wrap;html=1;labelBackgroundColor=none;fillColor=#1061B0;fontColor=#ffffff;align=center;arcSize=10;strokeColor=#0D5091;metaEdit=1;resizable=0;points=[[0.25,0,0],[0.5,0,0],[0.75,0,0],[1,0.25,0],[1,0.5,0],[1,0.75,0],[0.75,1,0],[0.5,1,0],[0.25,1,0],[0,0.75,0],[0,0.5,0],[0,0.25,0]];" vertex="1" parent="1">
            <mxGeometry x="467" y="410" width="240" height="120" as="geometry" />
          </mxCell>
        </object>
        <mxCell id="CHBCikpZAWP_d5KgYGRc-7" style="edgeStyle=orthogonalEdgeStyle;rounded=0;orthogonalLoop=1;jettySize=auto;html=1;exitX=0.5;exitY=1;exitDx=0;exitDy=0;exitPerimeter=0;entryX=0.5;entryY=0;entryDx=0;entryDy=0;entryPerimeter=0;" edge="1" parent="1" source="CHBCikpZAWP_d5KgYGRc-3" target="CHBCikpZAWP_d5KgYGRc-6">
          <mxGeometry relative="1" as="geometry" />
        </mxCell>
        <mxCell id="CHBCikpZAWP_d5KgYGRc-8" value="&lt;font style=&quot;font-size: 14px;&quot;&gt;Редактирует приложение&lt;/font&gt;" style="edgeLabel;html=1;align=center;verticalAlign=middle;resizable=0;points=[];" vertex="1" connectable="0" parent="CHBCikpZAWP_d5KgYGRc-7">
          <mxGeometry x="-0.336" y="-4" relative="1" as="geometry">
            <mxPoint x="-16" y="6" as="offset" />
          </mxGeometry>
        </mxCell>
        <mxCell id="CHBCikpZAWP_d5KgYGRc-9" value="Просматривает данные" style="text;html=1;align=center;verticalAlign=middle;resizable=0;points=[];autosize=1;strokeColor=none;fillColor=none;" vertex="1" parent="1">
          <mxGeometry x="640" y="368" width="160" height="30" as="geometry" />
        </mxCell>
      </root>
    </mxGraphModel>
  </diagram>
  <diagram id="mgFbFwKNr9H-GuUDYJZP" name="С4:Диаграмма контейнеров">
    <mxGraphModel dx="2068" dy="849" grid="0" gridSize="10" guides="1" tooltips="1" connect="1" arrows="1" fold="1" page="1" pageScale="1" pageWidth="1169" pageHeight="827" math="0" shadow="0">
      <root>
        <mxCell id="0" />
        <mxCell id="1" parent="0" />
        <mxCell id="LygnfI_mOXvQwHJwmdTx-1" style="edgeStyle=orthogonalEdgeStyle;rounded=0;orthogonalLoop=1;jettySize=auto;html=1;exitX=0.5;exitY=1;exitDx=0;exitDy=0;exitPerimeter=0;" edge="1" parent="1" source="LygnfI_mOXvQwHJwmdTx-2" target="LygnfI_mOXvQwHJwmdTx-5">
          <mxGeometry relative="1" as="geometry" />
        </mxCell>
        <object placeholders="1" c4Name="Приложение" c4Type="Container" c4Technology="приложение" c4Description="Просмотр приложения от администратора" label="&lt;font style=&quot;font-size: 16px&quot;&gt;&lt;b&gt;%c4Name%&lt;/b&gt;&lt;/font&gt;&lt;div&gt;[%c4Type%: %c4Technology%]&lt;/div&gt;&lt;br&gt;&lt;div&gt;&lt;font style=&quot;font-size: 11px&quot;&gt;&lt;font color=&quot;#E6E6E6&quot;&gt;%c4Description%&lt;/font&gt;&lt;/div&gt;" id="LygnfI_mOXvQwHJwmdTx-2">
          <mxCell style="rounded=1;whiteSpace=wrap;html=1;fontSize=11;labelBackgroundColor=none;fillColor=#23A2D9;fontColor=#ffffff;align=center;arcSize=10;strokeColor=#0E7DAD;metaEdit=1;resizable=0;points=[[0.25,0,0],[0.5,0,0],[0.75,0,0],[1,0.25,0],[1,0.5,0],[1,0.75,0],[0.75,1,0],[0.5,1,0],[0.25,1,0],[0,0.75,0],[0,0.5,0],[0,0.25,0]];" vertex="1" parent="1">
            <mxGeometry x="298" y="286" width="240" height="120" as="geometry" />
          </mxCell>
        </object>
        <mxCell id="LygnfI_mOXvQwHJwmdTx-3" style="edgeStyle=orthogonalEdgeStyle;rounded=0;orthogonalLoop=1;jettySize=auto;html=1;exitX=0.5;exitY=1;exitDx=0;exitDy=0;exitPerimeter=0;" edge="1" parent="1" source="LygnfI_mOXvQwHJwmdTx-4" target="LygnfI_mOXvQwHJwmdTx-5">
          <mxGeometry relative="1" as="geometry" />
        </mxCell>
        <object placeholders="1" c4Name="Приложение" c4Type="Container" c4Technology="приложение" c4Description="Предоставляет возможность просмотра данных" label="&lt;font style=&quot;font-size: 16px&quot;&gt;&lt;b&gt;%c4Name%&lt;/b&gt;&lt;/font&gt;&lt;div&gt;[%c4Type%: %c4Technology%]&lt;/div&gt;&lt;br&gt;&lt;div&gt;&lt;font style=&quot;font-size: 11px&quot;&gt;&lt;font color=&quot;#E6E6E6&quot;&gt;%c4Description%&lt;/font&gt;&lt;/div&gt;" id="LygnfI_mOXvQwHJwmdTx-4">
          <mxCell style="rounded=1;whiteSpace=wrap;html=1;fontSize=11;labelBackgroundColor=none;fillColor=#23A2D9;fontColor=#ffffff;align=center;arcSize=10;strokeColor=#0E7DAD;metaEdit=1;resizable=0;points=[[0.25,0,0],[0.5,0,0],[0.75,0,0],[1,0.25,0],[1,0.5,0],[1,0.75,0],[0.75,1,0],[0.5,1,0],[0.25,1,0],[0,0.75,0],[0,0.5,0],[0,0.25,0]];" vertex="1" parent="1">
            <mxGeometry x="583" y="286" width="240" height="120" as="geometry" />
          </mxCell>
        </object>
        <object placeholders="1" c4Name="График давления в Туле" c4Type="Sowtware System" c4Description="Обеспечивает работу ИС" label="&lt;font style=&quot;font-size: 16px&quot;&gt;&lt;b&gt;%c4Name%&lt;/b&gt;&lt;/font&gt;&lt;div&gt;[%c4Type%]&lt;/div&gt;&lt;br&gt;&lt;div&gt;&lt;font style=&quot;font-size: 11px&quot;&gt;&lt;font color=&quot;#cccccc&quot;&gt;%c4Description%&lt;/font&gt;&lt;/div&gt;" link="data:page/id,IL7cp3ojFNumDyHkS5XW" id="LygnfI_mOXvQwHJwmdTx-5">
          <mxCell style="rounded=1;whiteSpace=wrap;html=1;labelBackgroundColor=none;fillColor=#1061B0;fontColor=#ffffff;align=center;arcSize=10;strokeColor=#0D5091;metaEdit=1;resizable=0;points=[[0.25,0,0],[0.5,0,0],[0.75,0,0],[1,0.25,0],[1,0.5,0],[1,0.75,0],[0.75,1,0],[0.5,1,0],[0.25,1,0],[0,0.75,0],[0,0.5,0],[0,0.25,0]];" vertex="1" parent="1">
            <mxGeometry x="438" y="486" width="240" height="120" as="geometry" />
          </mxCell>
        </object>
        <mxCell id="LygnfI_mOXvQwHJwmdTx-6" style="edgeStyle=orthogonalEdgeStyle;rounded=0;orthogonalLoop=1;jettySize=auto;html=1;exitX=0.5;exitY=1;exitDx=0;exitDy=0;exitPerimeter=0;" edge="1" parent="1" source="LygnfI_mOXvQwHJwmdTx-7" target="LygnfI_mOXvQwHJwmdTx-2">
          <mxGeometry relative="1" as="geometry" />
        </mxCell>
        <object placeholders="1" c4Name="Разработчик" c4Type="Администратор" c4Description="Работа с приложением" label="&lt;font style=&quot;font-size: 16px&quot;&gt;&lt;b&gt;%c4Name%&lt;/b&gt;&lt;/font&gt;&lt;div&gt;[%c4Type%]&lt;/div&gt;&lt;br&gt;&lt;div&gt;&lt;font style=&quot;font-size: 11px&quot;&gt;&lt;font color=&quot;#cccccc&quot;&gt;%c4Description%&lt;/font&gt;&lt;/div&gt;" id="LygnfI_mOXvQwHJwmdTx-7">
          <mxCell style="html=1;fontSize=11;dashed=0;whiteSpace=wrap;fillColor=#083F75;strokeColor=#06315C;fontColor=#ffffff;shape=mxgraph.c4.person2;align=center;metaEdit=1;points=[[0.5,0,0],[1,0.5,0],[1,0.75,0],[0.75,1,0],[0.5,1,0],[0.25,1,0],[0,0.75,0],[0,0.5,0]];resizable=0;" vertex="1" parent="1">
            <mxGeometry x="318" y="46" width="200" height="180" as="geometry" />
          </mxCell>
        </object>
        <mxCell id="LygnfI_mOXvQwHJwmdTx-8" style="edgeStyle=orthogonalEdgeStyle;rounded=0;orthogonalLoop=1;jettySize=auto;html=1;exitX=0.5;exitY=1;exitDx=0;exitDy=0;exitPerimeter=0;" edge="1" parent="1" source="LygnfI_mOXvQwHJwmdTx-9" target="LygnfI_mOXvQwHJwmdTx-4">
          <mxGeometry relative="1" as="geometry" />
        </mxCell>
        <object placeholders="1" c4Name="Пользователь" c4Type="Пользователь" c4Description="Работает с интерфейсом программы" label="&lt;font style=&quot;font-size: 16px&quot;&gt;&lt;b&gt;%c4Name%&lt;/b&gt;&lt;/font&gt;&lt;div&gt;[%c4Type%]&lt;/div&gt;&lt;br&gt;&lt;div&gt;&lt;font style=&quot;font-size: 11px&quot;&gt;&lt;font color=&quot;#cccccc&quot;&gt;%c4Description%&lt;/font&gt;&lt;/div&gt;" id="LygnfI_mOXvQwHJwmdTx-9">
          <mxCell style="html=1;fontSize=11;dashed=0;whiteSpace=wrap;fillColor=#083F75;strokeColor=#06315C;fontColor=#ffffff;shape=mxgraph.c4.person2;align=center;metaEdit=1;points=[[0.5,0,0],[1,0.5,0],[1,0.75,0],[0.75,1,0],[0.5,1,0],[0.25,1,0],[0,0.75,0],[0,0.5,0]];resizable=0;" vertex="1" parent="1">
            <mxGeometry x="603" y="46" width="200" height="180" as="geometry" />
          </mxCell>
        </object>
        <mxCell id="LygnfI_mOXvQwHJwmdTx-10" value="" style="swimlane;startSize=0;dashed=1;" vertex="1" parent="1">
          <mxGeometry x="248" y="246" width="630" height="450" as="geometry" />
        </mxCell>
        <mxCell id="LygnfI_mOXvQwHJwmdTx-11" value="График давления в Туле" style="text;html=1;align=center;verticalAlign=middle;whiteSpace=wrap;rounded=0;" vertex="1" parent="LygnfI_mOXvQwHJwmdTx-10">
          <mxGeometry x="-30" y="410" width="210" height="30" as="geometry" />
        </mxCell>
        <mxCell id="LygnfI_mOXvQwHJwmdTx-12" value="[Sowtware System]" style="text;html=1;align=center;verticalAlign=middle;whiteSpace=wrap;rounded=0;" vertex="1" parent="LygnfI_mOXvQwHJwmdTx-10">
          <mxGeometry x="-20" y="430" width="150" height="30" as="geometry" />
        </mxCell>
        <mxCell id="LygnfI_mOXvQwHJwmdTx-13" value="&lt;font style=&quot;font-size: 14px;&quot;&gt;Обращается к приложению ИС&lt;/font&gt;" style="text;html=1;align=center;verticalAlign=middle;whiteSpace=wrap;rounded=0;" vertex="1" parent="LygnfI_mOXvQwHJwmdTx-10">
          <mxGeometry x="50" y="170" width="120" height="30" as="geometry" />
        </mxCell>
        <mxCell id="LygnfI_mOXvQwHJwmdTx-14" value="&lt;font style=&quot;font-size: 14px;&quot;&gt;Обращается к приложению ИС&lt;/font&gt;" style="text;html=1;align=center;verticalAlign=middle;whiteSpace=wrap;rounded=0;" vertex="1" parent="LygnfI_mOXvQwHJwmdTx-10">
          <mxGeometry x="460" y="170" width="120" height="30" as="geometry" />
        </mxCell>
      </root>
    </mxGraphModel>
  </diagram>
  <diagram id="IL7cp3ojFNumDyHkS5XW" name="С4:Диаграмма компонентов">
    <mxGraphModel dx="2068" dy="-1632" grid="0" gridSize="10" guides="1" tooltips="1" connect="1" arrows="1" fold="1" page="1" pageScale="1" pageWidth="1169" pageHeight="827" math="0" shadow="0">
      <root>
        <mxCell id="0" />
        <mxCell id="1" parent="0" />
        <mxCell id="VAKiMaVGBAODEUkXz0ED-1" value="" style="shape=folder;fontStyle=1;spacingTop=10;tabWidth=140;tabHeight=40;tabPosition=left;html=1;" vertex="1" parent="1">
          <mxGeometry x="140" y="2710" width="850" height="350" as="geometry" />
        </mxCell>
        <mxCell id="VAKiMaVGBAODEUkXz0ED-2" value="Построение графика&lt;div&gt;&amp;nbsp;давления в Туле&lt;/div&gt;" style="text;html=1;align=center;verticalAlign=middle;resizable=0;points=[];autosize=1;strokeColor=none;fillColor=none;" vertex="1" parent="1">
          <mxGeometry x="140" y="2710" width="140" height="40" as="geometry" />
        </mxCell>
        <mxCell id="VAKiMaVGBAODEUkXz0ED-3" value="" style="group" vertex="1" connectable="0" parent="1">
          <mxGeometry x="160" y="2770" width="177" height="90" as="geometry" />
        </mxCell>
        <mxCell id="VAKiMaVGBAODEUkXz0ED-4" value="Интерфейс и класс&lt;div&gt;&amp;nbsp;для данных давления&lt;/div&gt;" style="html=1;dropTarget=0;" vertex="1" parent="VAKiMaVGBAODEUkXz0ED-3">
          <mxGeometry width="177" height="90" as="geometry" />
        </mxCell>
        <mxCell id="VAKiMaVGBAODEUkXz0ED-5" value="" style="shape=module;jettyWidth=8;jettyHeight=4;" vertex="1" parent="VAKiMaVGBAODEUkXz0ED-4">
          <mxGeometry x="1" width="20" height="20" relative="1" as="geometry">
            <mxPoint x="-27" y="7" as="offset" />
          </mxGeometry>
        </mxCell>
        <mxCell id="VAKiMaVGBAODEUkXz0ED-6" value="&quot;компонент : код&quot;" style="text;html=1;align=center;verticalAlign=middle;resizable=0;points=[];autosize=1;strokeColor=none;fillColor=none;" vertex="1" parent="VAKiMaVGBAODEUkXz0ED-3">
          <mxGeometry x="20" width="120" height="30" as="geometry" />
        </mxCell>
        <mxCell id="VAKiMaVGBAODEUkXz0ED-7" value="" style="group" vertex="1" connectable="0" parent="1">
          <mxGeometry x="492" y="2770" width="230" height="150" as="geometry" />
        </mxCell>
        <UserObject label="Визуализация графика" link="data:page/id,2J7igOoCt1h1yFK_bEx8" id="VAKiMaVGBAODEUkXz0ED-8">
          <mxCell style="html=1;dropTarget=0;" vertex="1" parent="VAKiMaVGBAODEUkXz0ED-7">
            <mxGeometry width="180" height="90" as="geometry" />
          </mxCell>
        </UserObject>
        <mxCell id="VAKiMaVGBAODEUkXz0ED-9" value="" style="shape=module;jettyWidth=8;jettyHeight=4;" vertex="1" parent="VAKiMaVGBAODEUkXz0ED-8">
          <mxGeometry x="1" width="20" height="20" relative="1" as="geometry">
            <mxPoint x="-27" y="7" as="offset" />
          </mxGeometry>
        </mxCell>
        <mxCell id="VAKiMaVGBAODEUkXz0ED-10" value="&quot;компонент : программа&quot;" style="text;html=1;align=center;verticalAlign=middle;resizable=0;points=[];autosize=1;strokeColor=none;fillColor=none;" vertex="1" parent="VAKiMaVGBAODEUkXz0ED-7">
          <mxGeometry width="160" height="30" as="geometry" />
        </mxCell>
        <mxCell id="VAKiMaVGBAODEUkXz0ED-11" value="" style="whiteSpace=wrap;html=1;aspect=fixed;fillColor=#0d0d0d;" vertex="1" parent="VAKiMaVGBAODEUkXz0ED-7">
          <mxGeometry x="-10" y="35" width="20" height="20" as="geometry" />
        </mxCell>
        <mxCell id="VAKiMaVGBAODEUkXz0ED-12" value="" style="whiteSpace=wrap;html=1;aspect=fixed;fillColor=#0d0d0d;" vertex="1" parent="VAKiMaVGBAODEUkXz0ED-7">
          <mxGeometry x="80" y="80" width="20" height="20" as="geometry" />
        </mxCell>
        <mxCell id="VAKiMaVGBAODEUkXz0ED-13" value="" style="whiteSpace=wrap;html=1;aspect=fixed;fillColor=#0d0d0d;" vertex="1" parent="VAKiMaVGBAODEUkXz0ED-7">
          <mxGeometry x="170" y="35" width="20" height="20" as="geometry" />
        </mxCell>
        <mxCell id="VAKiMaVGBAODEUkXz0ED-14" value="" style="rounded=0;orthogonalLoop=1;jettySize=auto;html=1;endArrow=none;endFill=0;sketch=0;targetPerimeterSpacing=0;exitX=1;exitY=0.5;exitDx=0;exitDy=0;startArrow=none;" edge="1" parent="1" source="VAKiMaVGBAODEUkXz0ED-18" target="VAKiMaVGBAODEUkXz0ED-16">
          <mxGeometry relative="1" as="geometry">
            <mxPoint x="367" y="2815" as="sourcePoint" />
          </mxGeometry>
        </mxCell>
        <mxCell id="VAKiMaVGBAODEUkXz0ED-15" value="" style="rounded=0;orthogonalLoop=1;jettySize=auto;html=1;endArrow=halfCircle;endFill=0;entryX=0.5;entryY=0.5;endSize=6;strokeWidth=1;sketch=0;exitX=0;exitY=0.5;exitDx=0;exitDy=0;" edge="1" parent="1" source="VAKiMaVGBAODEUkXz0ED-8" target="VAKiMaVGBAODEUkXz0ED-16">
          <mxGeometry relative="1" as="geometry">
            <mxPoint x="407" y="2815" as="sourcePoint" />
            <Array as="points">
              <mxPoint x="467" y="2815" />
            </Array>
          </mxGeometry>
        </mxCell>
        <mxCell id="VAKiMaVGBAODEUkXz0ED-16" value="" style="ellipse;whiteSpace=wrap;html=1;align=center;aspect=fixed;resizable=0;points=[];outlineConnect=0;sketch=0;strokeColor=#000000;fillColor=#000000;" vertex="1" parent="1">
          <mxGeometry x="417" y="2810" width="10" height="10" as="geometry" />
        </mxCell>
        <mxCell id="VAKiMaVGBAODEUkXz0ED-17" value="" style="rounded=0;orthogonalLoop=1;jettySize=auto;html=1;endArrow=none;endFill=0;sketch=0;sourcePerimeterSpacing=0;exitX=1;exitY=0.5;exitDx=0;exitDy=0;" edge="1" parent="1" source="VAKiMaVGBAODEUkXz0ED-4" target="VAKiMaVGBAODEUkXz0ED-18">
          <mxGeometry relative="1" as="geometry">
            <mxPoint x="337" y="2815" as="sourcePoint" />
            <mxPoint x="382" y="2815" as="targetPoint" />
          </mxGeometry>
        </mxCell>
        <mxCell id="VAKiMaVGBAODEUkXz0ED-18" value="" style="whiteSpace=wrap;html=1;aspect=fixed;fillColor=#0d0d0d;" vertex="1" parent="1">
          <mxGeometry x="327" y="2805" width="20" height="20" as="geometry" />
        </mxCell>
        <mxCell id="VAKiMaVGBAODEUkXz0ED-19" value="Реализация метода&lt;div&gt;интерфейса&lt;/div&gt;" style="text;html=1;align=center;verticalAlign=middle;resizable=0;points=[];autosize=1;strokeColor=none;fillColor=none;" vertex="1" parent="1">
          <mxGeometry x="333" y="2775" width="130" height="40" as="geometry" />
        </mxCell>
        <mxCell id="VAKiMaVGBAODEUkXz0ED-20" value="" style="group" vertex="1" connectable="0" parent="1">
          <mxGeometry x="492" y="2940" width="180" height="90" as="geometry" />
        </mxCell>
        <mxCell id="VAKiMaVGBAODEUkXz0ED-21" value="Метод для инициализации&lt;div&gt;&amp;nbsp;и отрисовки графика&lt;/div&gt;" style="html=1;dropTarget=0;" vertex="1" parent="VAKiMaVGBAODEUkXz0ED-20">
          <mxGeometry width="180" height="90" as="geometry" />
        </mxCell>
        <mxCell id="VAKiMaVGBAODEUkXz0ED-22" value="" style="shape=module;jettyWidth=8;jettyHeight=4;" vertex="1" parent="VAKiMaVGBAODEUkXz0ED-21">
          <mxGeometry x="1" width="20" height="20" relative="1" as="geometry">
            <mxPoint x="-27" y="7" as="offset" />
          </mxGeometry>
        </mxCell>
        <mxCell id="VAKiMaVGBAODEUkXz0ED-23" value="&quot;компонент : программа&quot;" style="text;html=1;align=center;verticalAlign=middle;resizable=0;points=[];autosize=1;strokeColor=none;fillColor=none;" vertex="1" parent="VAKiMaVGBAODEUkXz0ED-20">
          <mxGeometry width="160" height="30" as="geometry" />
        </mxCell>
        <mxCell id="VAKiMaVGBAODEUkXz0ED-24" value="" style="whiteSpace=wrap;html=1;aspect=fixed;fillColor=#0d0d0d;" vertex="1" parent="VAKiMaVGBAODEUkXz0ED-20">
          <mxGeometry x="80" y="-10" width="20" height="20" as="geometry" />
        </mxCell>
        <mxCell id="VAKiMaVGBAODEUkXz0ED-25" value="" style="rounded=0;orthogonalLoop=1;jettySize=auto;html=1;endArrow=none;endFill=0;sketch=0;sourcePerimeterSpacing=0;targetPerimeterSpacing=0;exitX=0.5;exitY=0;exitDx=0;exitDy=0;" edge="1" parent="1" source="VAKiMaVGBAODEUkXz0ED-24" target="VAKiMaVGBAODEUkXz0ED-27">
          <mxGeometry relative="1" as="geometry">
            <mxPoint x="687" y="2925" as="sourcePoint" />
          </mxGeometry>
        </mxCell>
        <mxCell id="VAKiMaVGBAODEUkXz0ED-26" value="" style="rounded=0;orthogonalLoop=1;jettySize=auto;html=1;endArrow=halfCircle;endFill=0;endSize=6;strokeWidth=1;sketch=0;" edge="1" parent="1">
          <mxGeometry relative="1" as="geometry">
            <mxPoint x="581.2857142857142" y="2870" as="sourcePoint" />
            <mxPoint x="582" y="2895" as="targetPoint" />
          </mxGeometry>
        </mxCell>
        <mxCell id="VAKiMaVGBAODEUkXz0ED-27" value="" style="ellipse;whiteSpace=wrap;html=1;align=center;aspect=fixed;resizable=0;points=[];outlineConnect=0;sketch=0;fillColor=#050505;" vertex="1" parent="1">
          <mxGeometry x="577" y="2890" width="10" height="10" as="geometry" />
        </mxCell>
        <mxCell id="VAKiMaVGBAODEUkXz0ED-28" value="" style="group" vertex="1" connectable="0" parent="1">
          <mxGeometry x="797" y="2770" width="183" height="100" as="geometry" />
        </mxCell>
        <mxCell id="VAKiMaVGBAODEUkXz0ED-29" value="Компьютер" style="html=1;dropTarget=0;" vertex="1" parent="VAKiMaVGBAODEUkXz0ED-28">
          <mxGeometry width="183" height="90" as="geometry" />
        </mxCell>
        <mxCell id="VAKiMaVGBAODEUkXz0ED-30" value="" style="shape=module;jettyWidth=8;jettyHeight=4;" vertex="1" parent="VAKiMaVGBAODEUkXz0ED-29">
          <mxGeometry x="1" width="20" height="20" relative="1" as="geometry">
            <mxPoint x="-27" y="7" as="offset" />
          </mxGeometry>
        </mxCell>
        <mxCell id="VAKiMaVGBAODEUkXz0ED-31" value="&quot;компонент : устройство&quot;" style="text;html=1;align=center;verticalAlign=middle;resizable=0;points=[];autosize=1;strokeColor=none;fillColor=none;" vertex="1" parent="VAKiMaVGBAODEUkXz0ED-28">
          <mxGeometry width="160" height="30" as="geometry" />
        </mxCell>
        <mxCell id="VAKiMaVGBAODEUkXz0ED-32" value="" style="whiteSpace=wrap;html=1;aspect=fixed;fillColor=#0d0d0d;" vertex="1" parent="VAKiMaVGBAODEUkXz0ED-28">
          <mxGeometry x="-10.166666666666666" y="35" width="20" height="20" as="geometry" />
        </mxCell>
        <mxCell id="VAKiMaVGBAODEUkXz0ED-33" value="" style="rounded=0;orthogonalLoop=1;jettySize=auto;html=1;endArrow=halfCircle;endFill=0;endSize=6;strokeWidth=1;sketch=0;" edge="1" parent="1">
          <mxGeometry relative="1" as="geometry">
            <mxPoint x="797" y="2815" as="sourcePoint" />
            <mxPoint x="728" y="2815" as="targetPoint" />
          </mxGeometry>
        </mxCell>
        <mxCell id="VAKiMaVGBAODEUkXz0ED-34" value="" style="rounded=0;orthogonalLoop=1;jettySize=auto;html=1;endArrow=none;endFill=0;sketch=0;targetPerimeterSpacing=0;startArrow=none;" edge="1" parent="1" target="VAKiMaVGBAODEUkXz0ED-35">
          <mxGeometry relative="1" as="geometry">
            <mxPoint x="674" y="2815" as="sourcePoint" />
          </mxGeometry>
        </mxCell>
        <mxCell id="VAKiMaVGBAODEUkXz0ED-35" value="" style="ellipse;whiteSpace=wrap;html=1;align=center;aspect=fixed;resizable=0;points=[];outlineConnect=0;sketch=0;fillColor=#050505;" vertex="1" parent="1">
          <mxGeometry x="722" y="2810" width="10" height="10" as="geometry" />
        </mxCell>
        <mxCell id="VAKiMaVGBAODEUkXz0ED-36" value="График" style="text;html=1;align=center;verticalAlign=middle;resizable=0;points=[];autosize=1;strokeColor=none;fillColor=none;" vertex="1" parent="1">
          <mxGeometry x="697" y="2780" width="60" height="30" as="geometry" />
        </mxCell>
        <mxCell id="VAKiMaVGBAODEUkXz0ED-37" value="Данные" style="text;html=1;align=center;verticalAlign=middle;resizable=0;points=[];autosize=1;strokeColor=none;fillColor=none;rotation=-90;" vertex="1" parent="1">
          <mxGeometry x="577" y="2885" width="70" height="30" as="geometry" />
        </mxCell>
      </root>
    </mxGraphModel>
  </diagram>
  <diagram id="2J7igOoCt1h1yFK_bEx8" name="С4:Диаграмма классов">
    <mxGraphModel dx="2068" dy="-805" grid="0" gridSize="10" guides="1" tooltips="1" connect="1" arrows="1" fold="1" page="1" pageScale="1" pageWidth="1169" pageHeight="827" math="0" shadow="0">
      <root>
        <mxCell id="0" />
        <mxCell id="1" parent="0" />
        <mxCell id="M5a_UCdKYPhvuAJZ3aqr-1" style="edgeStyle=orthogonalEdgeStyle;rounded=0;orthogonalLoop=1;jettySize=auto;html=1;exitX=0.5;exitY=1;exitDx=0;exitDy=0;entryX=0.5;entryY=0;entryDx=0;entryDy=0;dashed=1;endArrow=block;endFill=0;" edge="1" parent="1" source="M5a_UCdKYPhvuAJZ3aqr-2" target="M5a_UCdKYPhvuAJZ3aqr-6">
          <mxGeometry relative="1" as="geometry">
            <Array as="points">
              <mxPoint x="685" y="2046" />
              <mxPoint x="605" y="2046" />
            </Array>
          </mxGeometry>
        </mxCell>
        <mxCell id="M5a_UCdKYPhvuAJZ3aqr-2" value="График" style="swimlane;fontStyle=2;align=left;verticalAlign=top;childLayout=stackLayout;horizontal=1;startSize=26;horizontalStack=0;resizeParent=1;resizeLast=0;collapsible=1;marginBottom=0;rounded=0;shadow=0;strokeWidth=1;" vertex="1" parent="1">
          <mxGeometry x="632.5" y="1906" width="110" height="88" as="geometry">
            <mxRectangle x="220" y="120" width="160" height="26" as="alternateBounds" />
          </mxGeometry>
        </mxCell>
        <mxCell id="M5a_UCdKYPhvuAJZ3aqr-3" value="graphCanvas" style="text;align=left;verticalAlign=top;spacingLeft=4;spacingRight=4;overflow=hidden;rotatable=0;points=[[0,0.5],[1,0.5]];portConstraint=eastwest;" vertex="1" parent="M5a_UCdKYPhvuAJZ3aqr-2">
          <mxGeometry y="26" width="110" height="24" as="geometry" />
        </mxCell>
        <mxCell id="M5a_UCdKYPhvuAJZ3aqr-4" value="" style="line;html=1;strokeWidth=1;align=left;verticalAlign=middle;spacingTop=-1;spacingLeft=3;spacingRight=3;rotatable=0;labelPosition=right;points=[];portConstraint=eastwest;dashed=1;" vertex="1" parent="M5a_UCdKYPhvuAJZ3aqr-2">
          <mxGeometry y="50" width="110" height="8" as="geometry" />
        </mxCell>
        <mxCell id="M5a_UCdKYPhvuAJZ3aqr-5" value="DrawChart" style="text;html=1;align=center;verticalAlign=middle;resizable=0;points=[];autosize=1;strokeColor=none;fillColor=none;" vertex="1" parent="M5a_UCdKYPhvuAJZ3aqr-2">
          <mxGeometry y="58" width="110" height="30" as="geometry" />
        </mxCell>
        <mxCell id="M5a_UCdKYPhvuAJZ3aqr-6" value="Интерфейс : &#xa;IGraph" style="swimlane;fontStyle=2;align=left;verticalAlign=top;childLayout=stackLayout;horizontal=1;startSize=40;horizontalStack=0;resizeParent=1;resizeLast=0;collapsible=1;marginBottom=0;rounded=0;shadow=0;strokeWidth=1;" vertex="1" parent="1">
          <mxGeometry x="490" y="2086" width="230" height="110" as="geometry">
            <mxRectangle x="220" y="120" width="160" height="26" as="alternateBounds" />
          </mxGeometry>
        </mxCell>
        <mxCell id="M5a_UCdKYPhvuAJZ3aqr-7" value="                                                              " style="text;align=left;verticalAlign=top;spacingLeft=4;spacingRight=4;overflow=hidden;rotatable=0;points=[[0,0.5],[1,0.5]];portConstraint=eastwest;" vertex="1" parent="M5a_UCdKYPhvuAJZ3aqr-6">
          <mxGeometry y="40" width="230" height="26" as="geometry" />
        </mxCell>
        <mxCell id="M5a_UCdKYPhvuAJZ3aqr-8" value="" style="line;html=1;strokeWidth=1;align=left;verticalAlign=middle;spacingTop=-1;spacingLeft=3;spacingRight=3;rotatable=0;labelPosition=right;points=[];portConstraint=eastwest;dashed=1;" vertex="1" parent="M5a_UCdKYPhvuAJZ3aqr-6">
          <mxGeometry y="66" width="230" height="8" as="geometry" />
        </mxCell>
        <mxCell id="M5a_UCdKYPhvuAJZ3aqr-9" value="&lt;pre style=&quot;box-sizing: border-box; font-variant-numeric: normal; font-variant-east-asian: normal; font-variant-alternates: normal; font-variant-position: normal; font-variant-emoji: normal; font-kerning: auto; font-optical-sizing: auto; font-feature-settings: normal; font-variation-settings: normal; font-stretch: normal; font-size: 0.875rem; line-height: 1.25; font-family: var(--font-family-monospace); font-size-adjust: 0.5; margin-top: 0px; margin-bottom: 0px; overflow: hidden; --color-scrollbar: var(--color-scrollbar-code); text-wrap-mode: wrap; --color-type: #56b6c2; --color-keyword: #c678dd; --color-class: #e06c75; --color-string: #98c379; --color-template: #d19a66; --color-selector: #e06c75; --color-function: #61aeee; --color-comment: #5c6370; --color-section: #e06c75; --color-variable: #d19a66; --color-attribute: #d19a66; --color-link: #d19a66; --color-tag: #e06c75;&quot; data-language=&quot;plaintext&quot; data-entity-type=&quot;MessageEntityPre&quot; class=&quot;code-block&quot;&gt;&lt;pre style=&quot;box-sizing: border-box; font-variant-numeric: normal; font-variant-east-asian: normal; font-variant-alternates: normal; font-variant-position: normal; font-variant-emoji: normal; font-kerning: auto; font-optical-sizing: auto; font-feature-settings: normal; font-variation-settings: normal; font-stretch: normal; font-size: 0.875rem; line-height: 1.25; font-family: var(--font-family-monospace); font-size-adjust: 0.5; margin-top: 0px; margin-bottom: 0px; overflow: hidden; --color-scrollbar: var(--color-scrollbar-code); text-wrap-mode: wrap; --color-type: #56b6c2; --color-keyword: #c678dd; --color-class: #e06c75; --color-string: #98c379; --color-template: #d19a66; --color-selector: #e06c75; --color-function: #61aeee; --color-comment: #5c6370; --color-section: #e06c75; --color-variable: #d19a66; --color-attribute: #d19a66; --color-link: #d19a66; --color-tag: #e06c75;&quot; data-language=&quot;plaintext&quot; data-entity-type=&quot;MessageEntityPre&quot; class=&quot;code-block&quot;&gt;&lt;font style=&quot;color: rgb(0, 0, 0);&quot;&gt; +DrawCanvas()&lt;/font&gt;&lt;/pre&gt;&lt;/pre&gt;" style="text;html=1;align=left;verticalAlign=middle;resizable=0;points=[];autosize=1;strokeColor=none;fillColor=none;" vertex="1" parent="M5a_UCdKYPhvuAJZ3aqr-6">
          <mxGeometry y="74" width="230" height="30" as="geometry" />
        </mxCell>
        <mxCell id="M5a_UCdKYPhvuAJZ3aqr-10" style="edgeStyle=orthogonalEdgeStyle;rounded=0;orthogonalLoop=1;jettySize=auto;html=1;exitX=0.5;exitY=1;exitDx=0;exitDy=0;entryX=0.5;entryY=0;entryDx=0;entryDy=0;dashed=1;endArrow=block;endFill=0;" edge="1" parent="1" source="M5a_UCdKYPhvuAJZ3aqr-11" target="M5a_UCdKYPhvuAJZ3aqr-6">
          <mxGeometry relative="1" as="geometry">
            <Array as="points">
              <mxPoint x="475" y="2046" />
              <mxPoint x="605" y="2046" />
            </Array>
          </mxGeometry>
        </mxCell>
        <mxCell id="M5a_UCdKYPhvuAJZ3aqr-11" value="&lt;p style=&quot;margin: 4px 0px 0px;&quot;&gt;&lt;i style=&quot;&quot;&gt;&amp;nbsp;Класс&amp;nbsp;&lt;/i&gt;&lt;span style=&quot;background-color: transparent;&quot;&gt;&lt;i&gt;PressureGraph&lt;/i&gt;&lt;/span&gt;&lt;/p&gt;&lt;p style=&quot;margin:0px;margin-left:4px;&quot;&gt;- canvas: Canvas&amp;nbsp; &amp;nbsp;&amp;nbsp;&lt;/p&gt;&lt;p style=&quot;margin:0px;margin-left:4px;&quot;&gt;- pressureValues: List():double&amp;gt;&lt;/p&gt;&lt;p style=&quot;margin:0px;margin-left:4px;&quot;&gt;- pressureData: IPressureData&amp;nbsp;&lt;/p&gt;&lt;hr style=&quot;border-style:solid;&quot; size=&quot;1&quot;&gt;&lt;p style=&quot;margin:0px;margin-left:4px;&quot;&gt;+ DrawAxes()&lt;/p&gt;&lt;p style=&quot;margin:0px;margin-left:4px;&quot;&gt;+ DrawCanvas()&amp;nbsp;&amp;nbsp;&lt;/p&gt;&lt;p style=&quot;margin:0px;margin-left:4px;&quot;&gt;&lt;br&gt;&lt;/p&gt;" style="verticalAlign=top;align=left;overflow=fill;html=1;whiteSpace=wrap;" vertex="1" parent="1">
          <mxGeometry x="290" y="1900" width="290" height="100" as="geometry" />
        </mxCell>
        <mxCell id="M5a_UCdKYPhvuAJZ3aqr-12" value="" style="endArrow=none;html=1;rounded=0;exitX=0;exitY=0.2;exitDx=0;exitDy=0;exitPerimeter=0;entryX=1;entryY=0.2;entryDx=0;entryDy=0;entryPerimeter=0;" edge="1" parent="1" source="M5a_UCdKYPhvuAJZ3aqr-11" target="M5a_UCdKYPhvuAJZ3aqr-11">
          <mxGeometry width="50" height="50" relative="1" as="geometry">
            <mxPoint x="580" y="2036" as="sourcePoint" />
            <mxPoint x="630" y="1986" as="targetPoint" />
          </mxGeometry>
        </mxCell>
      </root>
    </mxGraphModel>
  </diagram>
</mxfile>
